<?xml version="1.0" encoding="UTF-8" standalone="no"?>
<!DOCTYPE svg PUBLIC "-//W3C//DTD SVG 1.1//EN"
 "http://www.w3.org/Graphics/SVG/1.1/DTD/svg11.dtd">
<!-- Generated by graphviz version 2.40.1 (20161225.0304)
 -->
<!-- Title: career_details Pages: 1 -->
<svg width="565pt" height="682pt"
 viewBox="0.00 0.00 565.00 682.00" xmlns="http://www.w3.org/2000/svg" xmlns:xlink="http://www.w3.org/1999/xlink">
<g id="graph0" class="graph" transform="scale(1 1) rotate(0) translate(4 678)">
<title>career_details</title>
<polygon fill="#ffffff" stroke="transparent" points="-4,4 -4,-678 561,-678 561,4 -4,4"/>
<!-- career_details -->
<g id="node1" class="node">
<title>career_details</title>
<polygon fill="#efefef" stroke="transparent" points="257,-592.5 257,-627.5 511,-627.5 511,-592.5 257,-592.5"/>
<polygon fill="none" stroke="#000000" points="257,-592.5 257,-627.5 511,-627.5 511,-592.5 257,-592.5"/>
<text text-anchor="start" x="263.7068" y="-605.3" font-family="Arial Bold" font-size="18.00" fill="#000000">career_details</text>
<text text-anchor="start" x="376.7252" y="-605.3" font-family="Arial" font-size="14.00" fill="#000000">    </text>
<text text-anchor="start" x="410.93" y="-605.3" font-family="Arial" font-size="14.00" fill="#666666">[BASE TABLE]</text>
<polygon fill="none" stroke="#000000" points="257,-562.5 257,-592.5 511,-592.5 511,-562.5 257,-562.5"/>
<text text-anchor="start" x="264" y="-573.9" font-family="Arial" font-size="14.00" fill="#000000">career_id </text>
<text text-anchor="start" x="326.2314" y="-573.9" font-family="Arial" font-size="14.00" fill="#666666">[int]</text>
<polygon fill="none" stroke="#000000" points="257,-532.5 257,-562.5 511,-562.5 511,-532.5 257,-532.5"/>
<text text-anchor="start" x="264" y="-543.9" font-family="Arial" font-size="14.00" fill="#000000">row_no </text>
<text text-anchor="start" x="313.7882" y="-543.9" font-family="Arial" font-size="14.00" fill="#666666">[int]</text>
<polygon fill="none" stroke="#000000" points="257,-502.5 257,-532.5 511,-532.5 511,-502.5 257,-502.5"/>
<text text-anchor="start" x="264" y="-513.9" font-family="Arial" font-size="14.00" fill="#000000">subject_ja_jp </text>
<text text-anchor="start" x="349.5792" y="-513.9" font-family="Arial" font-size="14.00" fill="#666666">[varchar(255)]</text>
<polygon fill="none" stroke="#000000" points="257,-472.5 257,-502.5 511,-502.5 511,-472.5 257,-472.5"/>
<text text-anchor="start" x="264" y="-483.9" font-family="Arial" font-size="14.00" fill="#000000">subject_en_us </text>
<text text-anchor="start" x="358.1486" y="-483.9" font-family="Arial" font-size="14.00" fill="#666666">[varchar(255)]</text>
<polygon fill="none" stroke="#000000" points="257,-442.5 257,-472.5 511,-472.5 511,-442.5 257,-442.5"/>
<text text-anchor="start" x="264" y="-453.9" font-family="Arial" font-size="14.00" fill="#000000">skills </text>
<text text-anchor="start" x="298.2104" y="-453.9" font-family="Arial" font-size="14.00" fill="#666666">[text]</text>
<polygon fill="none" stroke="#000000" stroke-width="3" points="255.5,-441.5 255.5,-629.5 512.5,-629.5 512.5,-441.5 255.5,-441.5"/>
</g>
<!-- careers -->
<g id="node2" class="node">
<title>careers</title>
<polygon fill="#efefef" stroke="transparent" points="282,-282.5 282,-317.5 485,-317.5 485,-282.5 282,-282.5"/>
<polygon fill="none" stroke="#000000" points="282,-282.5 282,-317.5 485,-317.5 485,-282.5 282,-282.5"/>
<text text-anchor="start" x="289.7145" y="-295.3" font-family="Arial Bold" font-size="18.00" fill="#000000">careers</text>
<text text-anchor="start" x="349.7175" y="-295.3" font-family="Arial" font-size="14.00" fill="#000000">    </text>
<text text-anchor="start" x="383.9223" y="-295.3" font-family="Arial" font-size="14.00" fill="#666666">[BASE TABLE]</text>
<polygon fill="none" stroke="#000000" points="282,-252.5 282,-282.5 485,-282.5 485,-252.5 282,-252.5"/>
<text text-anchor="start" x="289" y="-263.9" font-family="Arial" font-size="14.00" fill="#000000">id    </text>
<text text-anchor="start" x="334.094" y="-263.9" font-family="Arial" font-size="14.00" fill="#666666">[int]</text>
<polygon fill="none" stroke="#000000" points="282,-222.5 282,-252.5 485,-252.5 485,-222.5 282,-222.5"/>
<text text-anchor="start" x="289" y="-233.9" font-family="Arial" font-size="14.00" fill="#000000">date    </text>
<text text-anchor="start" x="350.4432" y="-233.9" font-family="Arial" font-size="14.00" fill="#666666">[varchar(255)]</text>
<polygon fill="none" stroke="#000000" points="282,-192.5 282,-222.5 485,-222.5 485,-192.5 282,-192.5"/>
<text text-anchor="start" x="289" y="-203.9" font-family="Arial" font-size="14.00" fill="#000000">place    </text>
<text text-anchor="start" x="356.6592" y="-203.9" font-family="Arial" font-size="14.00" fill="#666666">[varchar(255)]</text>
<polygon fill="none" stroke="#000000" points="282,-162.5 282,-192.5 485,-192.5 485,-162.5 282,-162.5"/>
<text text-anchor="start" x="289" y="-173.9" font-family="Arial" font-size="14.00" fill="#000000">title_ja_jp    </text>
<text text-anchor="start" x="382.3254" y="-173.9" font-family="Arial" font-size="14.00" fill="#666666">[varchar(255)]</text>
<polygon fill="none" stroke="#000000" points="282,-132.5 282,-162.5 485,-162.5 485,-132.5 282,-132.5"/>
<text text-anchor="start" x="288.993" y="-143.9" font-family="Arial" font-size="14.00" fill="#000000">title_en_us    </text>
<text text-anchor="start" x="390.8878" y="-143.9" font-family="Arial" font-size="14.00" fill="#666666">[varchar(255)]</text>
<polygon fill="none" stroke="#000000" points="282,-102.5 282,-132.5 485,-132.5 485,-102.5 282,-102.5"/>
<text text-anchor="start" x="289" y="-113.9" font-family="Arial" font-size="14.00" fill="#000000">favicon    </text>
<text text-anchor="start" x="367.5498" y="-113.9" font-family="Arial" font-size="14.00" fill="#666666">[text]</text>
<polygon fill="none" stroke="#000000" points="282,-72.5 282,-102.5 485,-102.5 485,-72.5 282,-72.5"/>
<text text-anchor="start" x="289" y="-83.9" font-family="Arial" font-size="14.00" fill="#000000">url    </text>
<text text-anchor="start" x="338.7546" y="-83.9" font-family="Arial" font-size="14.00" fill="#666666">[text]</text>
<polygon fill="none" stroke="#000000" points="282,-42.5 282,-72.5 485,-72.5 485,-42.5 282,-42.5"/>
<text text-anchor="start" x="289" y="-53.9" font-family="Arial" font-size="14.00" fill="#000000">visible    </text>
<text text-anchor="start" x="362.0898" y="-53.9" font-family="Arial" font-size="14.00" fill="#666666">[tinyint(1)]</text>
</g>
<!-- career_details&#45;&gt;careers -->
<g id="edge1" class="edge">
<title>career_details:career_id&#45;&gt;careers:id</title>
<path fill="none" stroke="#000000" d="M246.837,-576.7926C179.3515,-566.8808 207.2264,-455.2493 257,-397 323.6447,-319.0068 418.3553,-438.9932 485,-361 511.9957,-329.4074 526.5556,-267.5 485,-267.5"/>
<polygon fill="#000000" stroke="#000000" points="247.0241,-576.8056 256.6875,-581.9891 252.0121,-577.1528 257,-577.5 257,-577.5 257,-577.5 252.0121,-577.1528 257.3125,-573.0109 247.0241,-576.8056 247.0241,-576.8056"/>
<text text-anchor="start" x="7.057" y="-587.5" font-family="Arial" font-size="10.00" fill="#000000">FOREIGN KEY (career_id) REFERENCES careers (id)</text>
</g>
</g>
</svg>
