<?xml version="1.0" encoding="UTF-8" standalone="no"?>
<!DOCTYPE svg PUBLIC "-//W3C//DTD SVG 1.1//EN"
 "http://www.w3.org/Graphics/SVG/1.1/DTD/svg11.dtd">
<!-- Generated by graphviz version 12.1.2 (20240928.0832)
 -->
<!-- Title: career_details Pages: 1 -->
<svg width="552pt" height="694pt"
 viewBox="0.00 0.00 551.56 694.40" xmlns="http://www.w3.org/2000/svg" xmlns:xlink="http://www.w3.org/1999/xlink">
<g id="graph0" class="graph" transform="scale(1 1) rotate(0) translate(4 690.4)">
<title>career_details</title>
<polygon fill="white" stroke="none" points="-4,4 -4,-690.4 547.56,-690.4 547.56,4 -4,4"/>
<!-- career_details -->
<g id="node1" class="node">
<title>career_details</title>
<polygon fill="#efefef" stroke="none" points="46.2,-604.6 46.2,-640.2 284.62,-640.2 284.62,-604.6 46.2,-604.6"/>
<polygon fill="none" stroke="black" points="46.2,-604.6 46.2,-640.2 284.62,-640.2 284.62,-604.6 46.2,-604.6"/>
<text text-anchor="start" x="53.2" y="-618" font-family="Arial Bold" font-size="18.00">career_details</text>
<text text-anchor="start" x="153.13" y="-618" font-family="Arial" font-size="14.00">    </text>
<text text-anchor="start" x="184.25" y="-618" font-family="Arial" font-size="14.00" fill="#666666">[BASE TABLE]</text>
<polygon fill="none" stroke="black" points="46.2,-573.8 46.2,-604.6 284.62,-604.6 284.62,-573.8 46.2,-573.8"/>
<text text-anchor="start" x="53.2" y="-586" font-family="Arial" font-size="14.00">career_id </text>
<text text-anchor="start" x="115.45" y="-586" font-family="Arial" font-size="14.00" fill="#666666">[int]</text>
<polygon fill="none" stroke="black" points="46.2,-543 46.2,-573.8 284.62,-573.8 284.62,-543 46.2,-543"/>
<text text-anchor="start" x="53.2" y="-555.2" font-family="Arial" font-size="14.00">row_no </text>
<text text-anchor="start" x="103.01" y="-555.2" font-family="Arial" font-size="14.00" fill="#666666">[int]</text>
<polygon fill="none" stroke="black" points="46.2,-512.2 46.2,-543 284.62,-543 284.62,-512.2 46.2,-512.2"/>
<text text-anchor="start" x="53.2" y="-524.4" font-family="Arial" font-size="14.00">subject_ja_jp </text>
<text text-anchor="start" x="138.81" y="-524.4" font-family="Arial" font-size="14.00" fill="#666666">[varchar(255)]</text>
<polygon fill="none" stroke="black" points="46.2,-481.4 46.2,-512.2 284.62,-512.2 284.62,-481.4 46.2,-481.4"/>
<text text-anchor="start" x="53.2" y="-493.6" font-family="Arial" font-size="14.00">subject_en_us </text>
<text text-anchor="start" x="147.38" y="-493.6" font-family="Arial" font-size="14.00" fill="#666666">[varchar(255)]</text>
<polygon fill="none" stroke="black" points="46.2,-450.6 46.2,-481.4 284.62,-481.4 284.62,-450.6 46.2,-450.6"/>
<text text-anchor="start" x="53.2" y="-462.8" font-family="Arial" font-size="14.00">skills </text>
<text text-anchor="start" x="87.42" y="-462.8" font-family="Arial" font-size="14.00" fill="#666666">[text]</text>
<polygon fill="none" stroke="black" stroke-width="3" points="44.7,-449.1 44.7,-641.7 286.12,-641.7 286.12,-449.1 44.7,-449.1"/>
</g>
<!-- careers -->
<g id="node2" class="node">
<title>careers</title>
<polygon fill="#efefef" stroke="none" points="70.69,-289.6 70.69,-325.2 260.13,-325.2 260.13,-289.6 70.69,-289.6"/>
<polygon fill="none" stroke="black" points="70.69,-289.6 70.69,-325.2 260.13,-325.2 260.13,-289.6 70.69,-289.6"/>
<text text-anchor="start" x="77.69" y="-303" font-family="Arial Bold" font-size="18.00">careers</text>
<text text-anchor="start" x="128.64" y="-303" font-family="Arial" font-size="14.00">    </text>
<text text-anchor="start" x="159.76" y="-303" font-family="Arial" font-size="14.00" fill="#666666">[BASE TABLE]</text>
<polygon fill="none" stroke="black" points="70.69,-258.8 70.69,-289.6 260.13,-289.6 260.13,-258.8 70.69,-258.8"/>
<text text-anchor="start" x="77.69" y="-271" font-family="Arial" font-size="14.00">id </text>
<text text-anchor="start" x="92.48" y="-271" font-family="Arial" font-size="14.00" fill="#666666">[int]</text>
<polygon fill="none" stroke="black" points="70.69,-228 70.69,-258.8 260.13,-258.8 260.13,-228 70.69,-228"/>
<text text-anchor="start" x="77.69" y="-240.2" font-family="Arial" font-size="14.00">date </text>
<text text-anchor="start" x="108.83" y="-240.2" font-family="Arial" font-size="14.00" fill="#666666">[varchar(255)]</text>
<polygon fill="none" stroke="black" points="70.69,-197.2 70.69,-228 260.13,-228 260.13,-197.2 70.69,-197.2"/>
<text text-anchor="start" x="77.69" y="-209.4" font-family="Arial" font-size="14.00">place </text>
<text text-anchor="start" x="115.05" y="-209.4" font-family="Arial" font-size="14.00" fill="#666666">[varchar(255)]</text>
<polygon fill="none" stroke="black" points="70.69,-166.4 70.69,-197.2 260.13,-197.2 260.13,-166.4 70.69,-166.4"/>
<text text-anchor="start" x="77.69" y="-178.6" font-family="Arial" font-size="14.00">title_ja_jp </text>
<text text-anchor="start" x="140.73" y="-178.6" font-family="Arial" font-size="14.00" fill="#666666">[varchar(255)]</text>
<polygon fill="none" stroke="black" points="70.69,-135.6 70.69,-166.4 260.13,-166.4 260.13,-135.6 70.69,-135.6"/>
<text text-anchor="start" x="77.69" y="-147.8" font-family="Arial" font-size="14.00">title_en_us </text>
<text text-anchor="start" x="149.3" y="-147.8" font-family="Arial" font-size="14.00" fill="#666666">[varchar(255)]</text>
<polygon fill="none" stroke="black" points="70.69,-104.8 70.69,-135.6 260.13,-135.6 260.13,-104.8 70.69,-104.8"/>
<text text-anchor="start" x="77.69" y="-117" font-family="Arial" font-size="14.00">favicon </text>
<text text-anchor="start" x="125.94" y="-117" font-family="Arial" font-size="14.00" fill="#666666">[text]</text>
<polygon fill="none" stroke="black" points="70.69,-74 70.69,-104.8 260.13,-104.8 260.13,-74 70.69,-74"/>
<text text-anchor="start" x="77.69" y="-86.2" font-family="Arial" font-size="14.00">url </text>
<text text-anchor="start" x="97.14" y="-86.2" font-family="Arial" font-size="14.00" fill="#666666">[text]</text>
<polygon fill="none" stroke="black" points="70.69,-43.2 70.69,-74 260.13,-74 260.13,-43.2 70.69,-43.2"/>
<text text-anchor="start" x="77.69" y="-55.4" font-family="Arial" font-size="14.00">visible </text>
<text text-anchor="start" x="120.48" y="-55.4" font-family="Arial" font-size="14.00" fill="#666666">[tinyint(1)]</text>
</g>
<!-- career_details&#45;&gt;careers -->
<g id="edge1" class="edge">
<title>career_details:career_id&#45;&gt;careers:id</title>
<path fill="none" stroke="black" d="M295.59,-586.85C353.23,-558.02 327.78,-274.2 261.13,-274.2"/>
<polygon fill="black" stroke="black" points="295.68,-586.82 284.91,-584.74 290.49,-588.05 286.27,-589.05 286.27,-589.05 286.27,-589.05 290.49,-588.05 286.98,-593.5 295.68,-586.82"/>
<text text-anchor="start" x="292.62" y="-599.2" font-family="Arial" font-size="10.00">FOREIGN KEY (career_id) REFERENCES careers (id)</text>
</g>
</g>
</svg>
