<?xml version="1.0" encoding="UTF-8" standalone="no"?>
<!DOCTYPE svg PUBLIC "-//W3C//DTD SVG 1.1//EN"
 "http://www.w3.org/Graphics/SVG/1.1/DTD/svg11.dtd">
<!-- Generated by graphviz version 2.40.1 (20161225.0304)
 -->
<!-- Title: careers Pages: 1 -->
<svg width="562pt" height="682pt"
 viewBox="0.00 0.00 562.00 682.00" xmlns="http://www.w3.org/2000/svg" xmlns:xlink="http://www.w3.org/1999/xlink">
<g id="graph0" class="graph" transform="scale(1 1) rotate(0) translate(4 678)">
<title>careers</title>
<polygon fill="#ffffff" stroke="transparent" points="-4,4 -4,-678 558,-678 558,4 -4,4"/>
<!-- careers -->
<g id="node1" class="node">
<title>careers</title>
<polygon fill="#efefef" stroke="transparent" points="283,-285.5 283,-320.5 484,-320.5 484,-285.5 283,-285.5"/>
<polygon fill="none" stroke="#000000" points="283,-285.5 283,-320.5 484,-320.5 484,-285.5 283,-285.5"/>
<text text-anchor="start" x="289.7145" y="-298.3" font-family="Arial Bold" font-size="18.00" fill="#000000">careers</text>
<text text-anchor="start" x="349.7175" y="-298.3" font-family="Arial" font-size="14.00" fill="#000000">    </text>
<text text-anchor="start" x="383.9223" y="-298.3" font-family="Arial" font-size="14.00" fill="#666666">[BASE TABLE]</text>
<polygon fill="none" stroke="#000000" points="283,-255.5 283,-285.5 484,-285.5 484,-255.5 283,-255.5"/>
<text text-anchor="start" x="290" y="-266.9" font-family="Arial" font-size="14.00" fill="#000000">id </text>
<text text-anchor="start" x="304.7798" y="-266.9" font-family="Arial" font-size="14.00" fill="#666666">[int]</text>
<polygon fill="none" stroke="#000000" points="283,-225.5 283,-255.5 484,-255.5 484,-225.5 283,-225.5"/>
<text text-anchor="start" x="290" y="-236.9" font-family="Arial" font-size="14.00" fill="#000000">date </text>
<text text-anchor="start" x="321.129" y="-236.9" font-family="Arial" font-size="14.00" fill="#666666">[varchar(255)]</text>
<polygon fill="none" stroke="#000000" points="283,-195.5 283,-225.5 484,-225.5 484,-195.5 283,-195.5"/>
<text text-anchor="start" x="290" y="-206.9" font-family="Arial" font-size="14.00" fill="#000000">place </text>
<text text-anchor="start" x="327.345" y="-206.9" font-family="Arial" font-size="14.00" fill="#666666">[varchar(255)]</text>
<polygon fill="none" stroke="#000000" points="283,-165.5 283,-195.5 484,-195.5 484,-165.5 283,-165.5"/>
<text text-anchor="start" x="290" y="-176.9" font-family="Arial" font-size="14.00" fill="#000000">title_ja_jp </text>
<text text-anchor="start" x="353.0112" y="-176.9" font-family="Arial" font-size="14.00" fill="#666666">[varchar(255)]</text>
<polygon fill="none" stroke="#000000" points="283,-135.5 283,-165.5 484,-165.5 484,-135.5 283,-135.5"/>
<text text-anchor="start" x="290" y="-146.9" font-family="Arial" font-size="14.00" fill="#000000">title_en_us </text>
<text text-anchor="start" x="361.5806" y="-146.9" font-family="Arial" font-size="14.00" fill="#666666">[varchar(255)]</text>
<polygon fill="none" stroke="#000000" points="283,-105.5 283,-135.5 484,-135.5 484,-105.5 283,-105.5"/>
<text text-anchor="start" x="290" y="-116.9" font-family="Arial" font-size="14.00" fill="#000000">favicon </text>
<text text-anchor="start" x="338.2356" y="-116.9" font-family="Arial" font-size="14.00" fill="#666666">[text]</text>
<polygon fill="none" stroke="#000000" points="283,-75.5 283,-105.5 484,-105.5 484,-75.5 283,-75.5"/>
<text text-anchor="start" x="290" y="-86.9" font-family="Arial" font-size="14.00" fill="#000000">url </text>
<text text-anchor="start" x="309.4404" y="-86.9" font-family="Arial" font-size="14.00" fill="#666666">[text]</text>
<polygon fill="none" stroke="#000000" points="283,-45.5 283,-75.5 484,-75.5 484,-45.5 283,-45.5"/>
<text text-anchor="start" x="290" y="-56.9" font-family="Arial" font-size="14.00" fill="#000000">visible </text>
<text text-anchor="start" x="332.7756" y="-56.9" font-family="Arial" font-size="14.00" fill="#666666">[tinyint(1)]</text>
<polygon fill="none" stroke="#000000" stroke-width="3" points="281,-44.5 281,-322.5 485,-322.5 485,-44.5 281,-44.5"/>
</g>
<!-- career_details -->
<g id="node2" class="node">
<title>career_details</title>
<polygon fill="#efefef" stroke="transparent" points="257,-595.5 257,-630.5 511,-630.5 511,-595.5 257,-595.5"/>
<polygon fill="none" stroke="#000000" points="257,-595.5 257,-630.5 511,-630.5 511,-595.5 257,-595.5"/>
<text text-anchor="start" x="263.7068" y="-608.3" font-family="Arial Bold" font-size="18.00" fill="#000000">career_details</text>
<text text-anchor="start" x="376.7252" y="-608.3" font-family="Arial" font-size="14.00" fill="#000000">    </text>
<text text-anchor="start" x="410.93" y="-608.3" font-family="Arial" font-size="14.00" fill="#666666">[BASE TABLE]</text>
<polygon fill="none" stroke="#000000" points="257,-565.5 257,-595.5 511,-595.5 511,-565.5 257,-565.5"/>
<text text-anchor="start" x="264" y="-576.9" font-family="Arial" font-size="14.00" fill="#000000">career_id    </text>
<text text-anchor="start" x="356.5456" y="-576.9" font-family="Arial" font-size="14.00" fill="#666666">[int]</text>
<polygon fill="none" stroke="#000000" points="257,-535.5 257,-565.5 511,-565.5 511,-535.5 257,-535.5"/>
<text text-anchor="start" x="264" y="-546.9" font-family="Arial" font-size="14.00" fill="#000000">row_no    </text>
<text text-anchor="start" x="344.1024" y="-546.9" font-family="Arial" font-size="14.00" fill="#666666">[int]</text>
<polygon fill="none" stroke="#000000" points="257,-505.5 257,-535.5 511,-535.5 511,-505.5 257,-505.5"/>
<text text-anchor="start" x="264" y="-516.9" font-family="Arial" font-size="14.00" fill="#000000">subject_ja_jp    </text>
<text text-anchor="start" x="379.8934" y="-516.9" font-family="Arial" font-size="14.00" fill="#666666">[varchar(255)]</text>
<polygon fill="none" stroke="#000000" points="257,-475.5 257,-505.5 511,-505.5 511,-475.5 257,-475.5"/>
<text text-anchor="start" x="264" y="-486.9" font-family="Arial" font-size="14.00" fill="#000000">subject_en_us    </text>
<text text-anchor="start" x="388.4628" y="-486.9" font-family="Arial" font-size="14.00" fill="#666666">[varchar(255)]</text>
<polygon fill="none" stroke="#000000" points="257,-445.5 257,-475.5 511,-475.5 511,-445.5 257,-445.5"/>
<text text-anchor="start" x="264" y="-456.9" font-family="Arial" font-size="14.00" fill="#000000">skills    </text>
<text text-anchor="start" x="328.5246" y="-456.9" font-family="Arial" font-size="14.00" fill="#666666">[text]</text>
</g>
<!-- career_details&#45;&gt;careers -->
<g id="edge1" class="edge">
<title>career_details:career_id&#45;&gt;careers:id</title>
<path fill="none" stroke="#000000" d="M247.006,-579.8045C180.6438,-570.0588 208.0731,-460.2977 257,-403 323.3331,-325.3181 417.6669,-444.6819 484,-367 511.8508,-334.3842 526.8889,-270.5 484,-270.5"/>
<polygon fill="#000000" stroke="#000000" points="247.0241,-579.8057 256.6875,-584.9891 252.0121,-580.1528 257,-580.5 257,-580.5 257,-580.5 252.0121,-580.1528 257.3125,-576.0109 247.0241,-579.8057 247.0241,-579.8057"/>
<text text-anchor="start" x="7.057" y="-590.5" font-family="Arial" font-size="10.00" fill="#000000">FOREIGN KEY (career_id) REFERENCES careers (id)</text>
</g>
</g>
</svg>
