<?xml version="1.0" encoding="UTF-8" standalone="no"?>
<!DOCTYPE svg PUBLIC "-//W3C//DTD SVG 1.1//EN"
 "http://www.w3.org/Graphics/SVG/1.1/DTD/svg11.dtd">
<!-- Generated by graphviz version 12.1.2 (20240928.0832)
 -->
<!-- Title: careers Pages: 1 -->
<svg width="549pt" height="694pt"
 viewBox="0.00 0.00 548.56 694.40" xmlns="http://www.w3.org/2000/svg" xmlns:xlink="http://www.w3.org/1999/xlink">
<g id="graph0" class="graph" transform="scale(1 1) rotate(0) translate(4 690.4)">
<title>careers</title>
<polygon fill="white" stroke="none" points="-4,4 -4,-690.4 544.56,-690.4 544.56,4 -4,4"/>
<!-- careers -->
<g id="node1" class="node">
<title>careers</title>
<polygon fill="#efefef" stroke="none" points="67.69,-292.6 67.69,-328.2 257.13,-328.2 257.13,-292.6 67.69,-292.6"/>
<polygon fill="none" stroke="black" points="67.69,-292.6 67.69,-328.2 257.13,-328.2 257.13,-292.6 67.69,-292.6"/>
<text text-anchor="start" x="74.69" y="-306" font-family="Arial Bold" font-size="18.00">careers</text>
<text text-anchor="start" x="125.64" y="-306" font-family="Arial" font-size="14.00">    </text>
<text text-anchor="start" x="156.76" y="-306" font-family="Arial" font-size="14.00" fill="#666666">[BASE TABLE]</text>
<polygon fill="none" stroke="black" points="67.69,-261.8 67.69,-292.6 257.13,-292.6 257.13,-261.8 67.69,-261.8"/>
<text text-anchor="start" x="74.69" y="-274" font-family="Arial" font-size="14.00">id </text>
<text text-anchor="start" x="89.48" y="-274" font-family="Arial" font-size="14.00" fill="#666666">[int]</text>
<polygon fill="none" stroke="black" points="67.69,-231 67.69,-261.8 257.13,-261.8 257.13,-231 67.69,-231"/>
<text text-anchor="start" x="74.69" y="-243.2" font-family="Arial" font-size="14.00">date </text>
<text text-anchor="start" x="105.83" y="-243.2" font-family="Arial" font-size="14.00" fill="#666666">[varchar(255)]</text>
<polygon fill="none" stroke="black" points="67.69,-200.2 67.69,-231 257.13,-231 257.13,-200.2 67.69,-200.2"/>
<text text-anchor="start" x="74.69" y="-212.4" font-family="Arial" font-size="14.00">place </text>
<text text-anchor="start" x="112.05" y="-212.4" font-family="Arial" font-size="14.00" fill="#666666">[varchar(255)]</text>
<polygon fill="none" stroke="black" points="67.69,-169.4 67.69,-200.2 257.13,-200.2 257.13,-169.4 67.69,-169.4"/>
<text text-anchor="start" x="74.69" y="-181.6" font-family="Arial" font-size="14.00">title_ja_jp </text>
<text text-anchor="start" x="137.73" y="-181.6" font-family="Arial" font-size="14.00" fill="#666666">[varchar(255)]</text>
<polygon fill="none" stroke="black" points="67.69,-138.6 67.69,-169.4 257.13,-169.4 257.13,-138.6 67.69,-138.6"/>
<text text-anchor="start" x="74.69" y="-150.8" font-family="Arial" font-size="14.00">title_en_us </text>
<text text-anchor="start" x="146.3" y="-150.8" font-family="Arial" font-size="14.00" fill="#666666">[varchar(255)]</text>
<polygon fill="none" stroke="black" points="67.69,-107.8 67.69,-138.6 257.13,-138.6 257.13,-107.8 67.69,-107.8"/>
<text text-anchor="start" x="74.69" y="-120" font-family="Arial" font-size="14.00">favicon </text>
<text text-anchor="start" x="122.94" y="-120" font-family="Arial" font-size="14.00" fill="#666666">[text]</text>
<polygon fill="none" stroke="black" points="67.69,-77 67.69,-107.8 257.13,-107.8 257.13,-77 67.69,-77"/>
<text text-anchor="start" x="74.69" y="-89.2" font-family="Arial" font-size="14.00">url </text>
<text text-anchor="start" x="94.14" y="-89.2" font-family="Arial" font-size="14.00" fill="#666666">[text]</text>
<polygon fill="none" stroke="black" points="67.69,-46.2 67.69,-77 257.13,-77 257.13,-46.2 67.69,-46.2"/>
<text text-anchor="start" x="74.69" y="-58.4" font-family="Arial" font-size="14.00">visible </text>
<text text-anchor="start" x="117.48" y="-58.4" font-family="Arial" font-size="14.00" fill="#666666">[tinyint(1)]</text>
<polygon fill="none" stroke="black" stroke-width="3" points="66.19,-44.7 66.19,-329.7 258.63,-329.7 258.63,-44.7 66.19,-44.7"/>
</g>
<!-- career_details -->
<g id="node2" class="node">
<title>career_details</title>
<polygon fill="#efefef" stroke="none" points="43.2,-607.6 43.2,-643.2 281.62,-643.2 281.62,-607.6 43.2,-607.6"/>
<polygon fill="none" stroke="black" points="43.2,-607.6 43.2,-643.2 281.62,-643.2 281.62,-607.6 43.2,-607.6"/>
<text text-anchor="start" x="50.2" y="-621" font-family="Arial Bold" font-size="18.00">career_details</text>
<text text-anchor="start" x="150.13" y="-621" font-family="Arial" font-size="14.00">    </text>
<text text-anchor="start" x="181.25" y="-621" font-family="Arial" font-size="14.00" fill="#666666">[BASE TABLE]</text>
<polygon fill="none" stroke="black" points="43.2,-576.8 43.2,-607.6 281.62,-607.6 281.62,-576.8 43.2,-576.8"/>
<text text-anchor="start" x="50.2" y="-589" font-family="Arial" font-size="14.00">career_id </text>
<text text-anchor="start" x="112.45" y="-589" font-family="Arial" font-size="14.00" fill="#666666">[int]</text>
<polygon fill="none" stroke="black" points="43.2,-546 43.2,-576.8 281.62,-576.8 281.62,-546 43.2,-546"/>
<text text-anchor="start" x="50.2" y="-558.2" font-family="Arial" font-size="14.00">row_no </text>
<text text-anchor="start" x="100.01" y="-558.2" font-family="Arial" font-size="14.00" fill="#666666">[int]</text>
<polygon fill="none" stroke="black" points="43.2,-515.2 43.2,-546 281.62,-546 281.62,-515.2 43.2,-515.2"/>
<text text-anchor="start" x="50.2" y="-527.4" font-family="Arial" font-size="14.00">subject_ja_jp </text>
<text text-anchor="start" x="135.81" y="-527.4" font-family="Arial" font-size="14.00" fill="#666666">[varchar(255)]</text>
<polygon fill="none" stroke="black" points="43.2,-484.4 43.2,-515.2 281.62,-515.2 281.62,-484.4 43.2,-484.4"/>
<text text-anchor="start" x="50.2" y="-496.6" font-family="Arial" font-size="14.00">subject_en_us </text>
<text text-anchor="start" x="144.38" y="-496.6" font-family="Arial" font-size="14.00" fill="#666666">[varchar(255)]</text>
<polygon fill="none" stroke="black" points="43.2,-453.6 43.2,-484.4 281.62,-484.4 281.62,-453.6 43.2,-453.6"/>
<text text-anchor="start" x="50.2" y="-465.8" font-family="Arial" font-size="14.00">skills </text>
<text text-anchor="start" x="84.42" y="-465.8" font-family="Arial" font-size="14.00" fill="#666666">[text]</text>
</g>
<!-- career_details&#45;&gt;careers -->
<g id="edge1" class="edge">
<title>career_details:career_id&#45;&gt;careers:id</title>
<path fill="none" stroke="black" d="M292.59,-589.85C350.23,-561.02 324.78,-277.2 258.13,-277.2"/>
<polygon fill="black" stroke="black" points="292.68,-589.82 281.91,-587.74 287.49,-591.05 283.27,-592.05 283.27,-592.05 283.27,-592.05 287.49,-591.05 283.98,-596.5 292.68,-589.82"/>
<text text-anchor="start" x="289.62" y="-602.2" font-family="Arial" font-size="10.00">FOREIGN KEY (career_id) REFERENCES careers (id)</text>
</g>
</g>
</svg>
