<?xml version="1.0" encoding="UTF-8" standalone="no"?>
<!DOCTYPE svg PUBLIC "-//W3C//DTD SVG 1.1//EN"
 "http://www.w3.org/Graphics/SVG/1.1/DTD/svg11.dtd">
<!-- Generated by graphviz version 2.40.1 (20161225.0304)
 -->
<!-- Title: certifications Pages: 1 -->
<svg width="341pt" height="405pt"
 viewBox="0.00 0.00 341.00 405.00" xmlns="http://www.w3.org/2000/svg" xmlns:xlink="http://www.w3.org/1999/xlink">
<g id="graph0" class="graph" transform="scale(1 1) rotate(0) translate(4 401)">
<title>certifications</title>
<polygon fill="#ffffff" stroke="transparent" points="-4,4 -4,-401 337,-401 337,4 -4,4"/>
<!-- certifications -->
<g id="node1" class="node">
<title>certifications</title>
<polygon fill="#efefef" stroke="transparent" points="46.5,-315.5 46.5,-350.5 287.5,-350.5 287.5,-315.5 46.5,-315.5"/>
<polygon fill="none" stroke="#000000" points="46.5,-315.5 46.5,-350.5 287.5,-350.5 287.5,-315.5 46.5,-315.5"/>
<text text-anchor="start" x="53.2129" y="-328.3" font-family="Arial Bold" font-size="18.00" fill="#000000">certifications</text>
<text text-anchor="start" x="153.2191" y="-328.3" font-family="Arial" font-size="14.00" fill="#000000">    </text>
<text text-anchor="start" x="187.4239" y="-328.3" font-family="Arial" font-size="14.00" fill="#666666">[BASE TABLE]</text>
<polygon fill="none" stroke="#000000" points="46.5,-285.5 46.5,-315.5 287.5,-315.5 287.5,-285.5 46.5,-285.5"/>
<text text-anchor="start" x="53.5" y="-296.9" font-family="Arial" font-size="14.00" fill="#000000">id </text>
<text text-anchor="start" x="68.2798" y="-296.9" font-family="Arial" font-size="14.00" fill="#666666">[int]</text>
<polygon fill="none" stroke="#000000" points="46.5,-255.5 46.5,-285.5 287.5,-285.5 287.5,-255.5 46.5,-255.5"/>
<text text-anchor="start" x="53.5" y="-266.9" font-family="Arial" font-size="14.00" fill="#000000">date </text>
<text text-anchor="start" x="84.629" y="-266.9" font-family="Arial" font-size="14.00" fill="#666666">[varchar(255)]</text>
<polygon fill="none" stroke="#000000" points="46.5,-225.5 46.5,-255.5 287.5,-255.5 287.5,-225.5 46.5,-225.5"/>
<text text-anchor="start" x="53.5" y="-236.9" font-family="Arial" font-size="14.00" fill="#000000">title_ja_jp </text>
<text text-anchor="start" x="116.5112" y="-236.9" font-family="Arial" font-size="14.00" fill="#666666">[varchar(255)]</text>
<polygon fill="none" stroke="#000000" points="46.5,-195.5 46.5,-225.5 287.5,-225.5 287.5,-195.5 46.5,-195.5"/>
<text text-anchor="start" x="53.5" y="-206.9" font-family="Arial" font-size="14.00" fill="#000000">title_en_us </text>
<text text-anchor="start" x="125.0806" y="-206.9" font-family="Arial" font-size="14.00" fill="#666666">[varchar(255)]</text>
<polygon fill="none" stroke="#000000" points="46.5,-165.5 46.5,-195.5 287.5,-195.5 287.5,-165.5 46.5,-165.5"/>
<text text-anchor="start" x="53.5" y="-176.9" font-family="Arial" font-size="14.00" fill="#000000">subject_ja_jp </text>
<text text-anchor="start" x="139.0792" y="-176.9" font-family="Arial" font-size="14.00" fill="#666666">[varchar(255)]</text>
<polygon fill="none" stroke="#000000" points="46.5,-135.5 46.5,-165.5 287.5,-165.5 287.5,-135.5 46.5,-135.5"/>
<text text-anchor="start" x="53.5" y="-146.9" font-family="Arial" font-size="14.00" fill="#000000">subject_en_us </text>
<text text-anchor="start" x="147.6486" y="-146.9" font-family="Arial" font-size="14.00" fill="#666666">[varchar(255)]</text>
<polygon fill="none" stroke="#000000" points="46.5,-105.5 46.5,-135.5 287.5,-135.5 287.5,-105.5 46.5,-105.5"/>
<text text-anchor="start" x="53.5" y="-116.9" font-family="Arial" font-size="14.00" fill="#000000">favicon </text>
<text text-anchor="start" x="101.7356" y="-116.9" font-family="Arial" font-size="14.00" fill="#666666">[text]</text>
<polygon fill="none" stroke="#000000" points="46.5,-75.5 46.5,-105.5 287.5,-105.5 287.5,-75.5 46.5,-75.5"/>
<text text-anchor="start" x="53.5" y="-86.9" font-family="Arial" font-size="14.00" fill="#000000">url </text>
<text text-anchor="start" x="72.9404" y="-86.9" font-family="Arial" font-size="14.00" fill="#666666">[text]</text>
<polygon fill="none" stroke="#000000" points="46.5,-45.5 46.5,-75.5 287.5,-75.5 287.5,-45.5 46.5,-45.5"/>
<text text-anchor="start" x="53.5" y="-56.9" font-family="Arial" font-size="14.00" fill="#000000">visible </text>
<text text-anchor="start" x="96.2756" y="-56.9" font-family="Arial" font-size="14.00" fill="#666666">[tinyint(1)]</text>
<polygon fill="none" stroke="#000000" stroke-width="3" points="44.5,-44.5 44.5,-352.5 288.5,-352.5 288.5,-44.5 44.5,-44.5"/>
</g>
</g>
</svg>
