<?xml version="1.0" encoding="UTF-8" standalone="no"?>
<!DOCTYPE svg PUBLIC "-//W3C//DTD SVG 1.1//EN"
 "http://www.w3.org/Graphics/SVG/1.1/DTD/svg11.dtd">
<!-- Generated by graphviz version 12.1.2 (20240928.0832)
 -->
<!-- Title: product_images Pages: 1 -->
<svg width="577pt" height="787pt"
 viewBox="0.00 0.00 576.62 786.80" xmlns="http://www.w3.org/2000/svg" xmlns:xlink="http://www.w3.org/1999/xlink">
<g id="graph0" class="graph" transform="scale(1 1) rotate(0) translate(4 782.8)">
<title>product_images</title>
<polygon fill="white" stroke="none" points="-4,4 -4,-782.8 572.62,-782.8 572.62,4 -4,4"/>
<!-- product_images -->
<g id="node1" class="node">
<title>product_images</title>
<polygon fill="#efefef" stroke="none" points="46.2,-697 46.2,-732.6 299.66,-732.6 299.66,-697 46.2,-697"/>
<polygon fill="none" stroke="black" points="46.2,-697 46.2,-732.6 299.66,-732.6 299.66,-697 46.2,-697"/>
<text text-anchor="start" x="53.2" y="-710.4" font-family="Arial Bold" font-size="18.00">product_images</text>
<text text-anchor="start" x="168.17" y="-710.4" font-family="Arial" font-size="14.00">    </text>
<text text-anchor="start" x="199.29" y="-710.4" font-family="Arial" font-size="14.00" fill="#666666">[BASE TABLE]</text>
<polygon fill="none" stroke="black" points="46.2,-666.2 46.2,-697 299.66,-697 299.66,-666.2 46.2,-666.2"/>
<text text-anchor="start" x="53.2" y="-678.4" font-family="Arial" font-size="14.00">product_id </text>
<text text-anchor="start" x="122.47" y="-678.4" font-family="Arial" font-size="14.00" fill="#666666">[int]</text>
<polygon fill="none" stroke="black" points="46.2,-635.4 46.2,-666.2 299.66,-666.2 299.66,-635.4 46.2,-635.4"/>
<text text-anchor="start" x="53.2" y="-647.6" font-family="Arial" font-size="14.00">row_no </text>
<text text-anchor="start" x="103.01" y="-647.6" font-family="Arial" font-size="14.00" fill="#666666">[int]</text>
<polygon fill="none" stroke="black" points="46.2,-604.6 46.2,-635.4 299.66,-635.4 299.66,-604.6 46.2,-604.6"/>
<text text-anchor="start" x="53.2" y="-616.8" font-family="Arial" font-size="14.00">data </text>
<text text-anchor="start" x="84.34" y="-616.8" font-family="Arial" font-size="14.00" fill="#666666">[text]</text>
<polygon fill="none" stroke="black" stroke-width="3" points="44.7,-603.1 44.7,-734.1 301.16,-734.1 301.16,-603.1 44.7,-603.1"/>
</g>
<!-- products -->
<g id="node2" class="node">
<title>products</title>
<polygon fill="#efefef" stroke="none" points="72.69,-443.6 72.69,-479.2 273.17,-479.2 273.17,-443.6 72.69,-443.6"/>
<polygon fill="none" stroke="black" points="72.69,-443.6 72.69,-479.2 273.17,-479.2 273.17,-443.6 72.69,-443.6"/>
<text text-anchor="start" x="79.69" y="-457" font-family="Arial Bold" font-size="18.00">products</text>
<text text-anchor="start" x="141.68" y="-457" font-family="Arial" font-size="14.00">    </text>
<text text-anchor="start" x="172.8" y="-457" font-family="Arial" font-size="14.00" fill="#666666">[BASE TABLE]</text>
<polygon fill="none" stroke="black" points="72.69,-412.8 72.69,-443.6 273.17,-443.6 273.17,-412.8 72.69,-412.8"/>
<text text-anchor="start" x="79.69" y="-425" font-family="Arial" font-size="14.00">id </text>
<text text-anchor="start" x="94.48" y="-425" font-family="Arial" font-size="14.00" fill="#666666">[int]</text>
<polygon fill="none" stroke="black" points="72.69,-382 72.69,-412.8 273.17,-412.8 273.17,-382 72.69,-382"/>
<text text-anchor="start" x="79.69" y="-394.2" font-family="Arial" font-size="14.00">title_ja_jp </text>
<text text-anchor="start" x="142.73" y="-394.2" font-family="Arial" font-size="14.00" fill="#666666">[varchar(255)]</text>
<polygon fill="none" stroke="black" points="72.69,-351.2 72.69,-382 273.17,-382 273.17,-351.2 72.69,-351.2"/>
<text text-anchor="start" x="79.69" y="-363.4" font-family="Arial" font-size="14.00">title_en_us </text>
<text text-anchor="start" x="151.3" y="-363.4" font-family="Arial" font-size="14.00" fill="#666666">[varchar(255)]</text>
<polygon fill="none" stroke="black" points="72.69,-320.4 72.69,-351.2 273.17,-351.2 273.17,-320.4 72.69,-320.4"/>
<text text-anchor="start" x="79.69" y="-332.6" font-family="Arial" font-size="14.00">subject_ja_jp </text>
<text text-anchor="start" x="165.3" y="-332.6" font-family="Arial" font-size="14.00" fill="#666666">[varchar(255)]</text>
<polygon fill="none" stroke="black" points="72.69,-289.6 72.69,-320.4 273.17,-320.4 273.17,-289.6 72.69,-289.6"/>
<text text-anchor="start" x="79.69" y="-301.8" font-family="Arial" font-size="14.00">subject_en_us </text>
<text text-anchor="start" x="173.87" y="-301.8" font-family="Arial" font-size="14.00" fill="#666666">[varchar(255)]</text>
<polygon fill="none" stroke="black" points="72.69,-258.8 72.69,-289.6 273.17,-289.6 273.17,-258.8 72.69,-258.8"/>
<text text-anchor="start" x="79.69" y="-271" font-family="Arial" font-size="14.00">body_ja_jp </text>
<text text-anchor="start" x="151.3" y="-271" font-family="Arial" font-size="14.00" fill="#666666">[text]</text>
<polygon fill="none" stroke="black" points="72.69,-228 72.69,-258.8 273.17,-258.8 273.17,-228 72.69,-228"/>
<text text-anchor="start" x="79.69" y="-240.2" font-family="Arial" font-size="14.00">body_en_us </text>
<text text-anchor="start" x="159.87" y="-240.2" font-family="Arial" font-size="14.00" fill="#666666">[text]</text>
<polygon fill="none" stroke="black" points="72.69,-197.2 72.69,-228 273.17,-228 273.17,-197.2 72.69,-197.2"/>
<text text-anchor="start" x="79.69" y="-209.4" font-family="Arial" font-size="14.00">skills </text>
<text text-anchor="start" x="113.91" y="-209.4" font-family="Arial" font-size="14.00" fill="#666666">[text]</text>
<polygon fill="none" stroke="black" points="72.69,-166.4 72.69,-197.2 273.17,-197.2 273.17,-166.4 72.69,-166.4"/>
<text text-anchor="start" x="79.69" y="-178.6" font-family="Arial" font-size="14.00">url_code </text>
<text text-anchor="start" x="137.28" y="-178.6" font-family="Arial" font-size="14.00" fill="#666666">[text]</text>
<polygon fill="none" stroke="black" points="72.69,-135.6 72.69,-166.4 273.17,-166.4 273.17,-135.6 72.69,-135.6"/>
<text text-anchor="start" x="79.69" y="-147.8" font-family="Arial" font-size="14.00">url_home </text>
<text text-anchor="start" x="141.95" y="-147.8" font-family="Arial" font-size="14.00" fill="#666666">[text]</text>
<polygon fill="none" stroke="black" points="72.69,-104.8 72.69,-135.6 273.17,-135.6 273.17,-104.8 72.69,-104.8"/>
<text text-anchor="start" x="79.69" y="-117" font-family="Arial" font-size="14.00">downloads </text>
<text text-anchor="start" x="150.52" y="-117" font-family="Arial" font-size="14.00" fill="#666666">[int]</text>
<polygon fill="none" stroke="black" points="72.69,-74 72.69,-104.8 273.17,-104.8 273.17,-74 72.69,-74"/>
<text text-anchor="start" x="79.69" y="-86.2" font-family="Arial" font-size="14.00">pickup </text>
<text text-anchor="start" x="124.05" y="-86.2" font-family="Arial" font-size="14.00" fill="#666666">[tinyint(1)]</text>
<polygon fill="none" stroke="black" points="72.69,-43.2 72.69,-74 273.17,-74 273.17,-43.2 72.69,-43.2"/>
<text text-anchor="start" x="79.69" y="-55.4" font-family="Arial" font-size="14.00">visible </text>
<text text-anchor="start" x="122.48" y="-55.4" font-family="Arial" font-size="14.00" fill="#666666">[tinyint(1)]</text>
</g>
<!-- product_images&#45;&gt;products -->
<g id="edge1" class="edge">
<title>product_images:product_id&#45;&gt;products:id</title>
<path fill="none" stroke="black" d="M310.87,-680.87C412.15,-666.01 383.87,-428.2 274.17,-428.2"/>
<polygon fill="black" stroke="black" points="310.97,-680.87 300.67,-677.09 305.65,-681.24 301.33,-681.55 301.33,-681.55 301.33,-681.55 305.65,-681.24 301.31,-686.06 310.97,-680.87"/>
<text text-anchor="start" x="307.66" y="-691.6" font-family="Arial" font-size="10.00">FOREIGN KEY (product_id) REFERENCES products (id)</text>
</g>
</g>
</svg>
