<?xml version="1.0" encoding="UTF-8" standalone="no"?>
<!DOCTYPE svg PUBLIC "-//W3C//DTD SVG 1.1//EN"
 "http://www.w3.org/Graphics/SVG/1.1/DTD/svg11.dtd">
<!-- Generated by graphviz version 12.1.2 (20240928.0832)
 -->
<!-- Title: products Pages: 1 -->
<svg width="574pt" height="787pt"
 viewBox="0.00 0.00 573.62 786.80" xmlns="http://www.w3.org/2000/svg" xmlns:xlink="http://www.w3.org/1999/xlink">
<g id="graph0" class="graph" transform="scale(1 1) rotate(0) translate(4 782.8)">
<title>products</title>
<polygon fill="white" stroke="none" points="-4,4 -4,-782.8 569.62,-782.8 569.62,4 -4,4"/>
<!-- products -->
<g id="node1" class="node">
<title>products</title>
<polygon fill="#efefef" stroke="none" points="69.69,-446.6 69.69,-482.2 270.17,-482.2 270.17,-446.6 69.69,-446.6"/>
<polygon fill="none" stroke="black" points="69.69,-446.6 69.69,-482.2 270.17,-482.2 270.17,-446.6 69.69,-446.6"/>
<text text-anchor="start" x="76.69" y="-460" font-family="Arial Bold" font-size="18.00">products</text>
<text text-anchor="start" x="138.68" y="-460" font-family="Arial" font-size="14.00">    </text>
<text text-anchor="start" x="169.8" y="-460" font-family="Arial" font-size="14.00" fill="#666666">[BASE TABLE]</text>
<polygon fill="none" stroke="black" points="69.69,-415.8 69.69,-446.6 270.17,-446.6 270.17,-415.8 69.69,-415.8"/>
<text text-anchor="start" x="76.69" y="-428" font-family="Arial" font-size="14.00">id </text>
<text text-anchor="start" x="91.48" y="-428" font-family="Arial" font-size="14.00" fill="#666666">[int]</text>
<polygon fill="none" stroke="black" points="69.69,-385 69.69,-415.8 270.17,-415.8 270.17,-385 69.69,-385"/>
<text text-anchor="start" x="76.69" y="-397.2" font-family="Arial" font-size="14.00">title_ja_jp </text>
<text text-anchor="start" x="139.73" y="-397.2" font-family="Arial" font-size="14.00" fill="#666666">[varchar(255)]</text>
<polygon fill="none" stroke="black" points="69.69,-354.2 69.69,-385 270.17,-385 270.17,-354.2 69.69,-354.2"/>
<text text-anchor="start" x="76.69" y="-366.4" font-family="Arial" font-size="14.00">title_en_us </text>
<text text-anchor="start" x="148.3" y="-366.4" font-family="Arial" font-size="14.00" fill="#666666">[varchar(255)]</text>
<polygon fill="none" stroke="black" points="69.69,-323.4 69.69,-354.2 270.17,-354.2 270.17,-323.4 69.69,-323.4"/>
<text text-anchor="start" x="76.69" y="-335.6" font-family="Arial" font-size="14.00">subject_ja_jp </text>
<text text-anchor="start" x="162.3" y="-335.6" font-family="Arial" font-size="14.00" fill="#666666">[varchar(255)]</text>
<polygon fill="none" stroke="black" points="69.69,-292.6 69.69,-323.4 270.17,-323.4 270.17,-292.6 69.69,-292.6"/>
<text text-anchor="start" x="76.69" y="-304.8" font-family="Arial" font-size="14.00">subject_en_us </text>
<text text-anchor="start" x="170.87" y="-304.8" font-family="Arial" font-size="14.00" fill="#666666">[varchar(255)]</text>
<polygon fill="none" stroke="black" points="69.69,-261.8 69.69,-292.6 270.17,-292.6 270.17,-261.8 69.69,-261.8"/>
<text text-anchor="start" x="76.69" y="-274" font-family="Arial" font-size="14.00">body_ja_jp </text>
<text text-anchor="start" x="148.3" y="-274" font-family="Arial" font-size="14.00" fill="#666666">[text]</text>
<polygon fill="none" stroke="black" points="69.69,-231 69.69,-261.8 270.17,-261.8 270.17,-231 69.69,-231"/>
<text text-anchor="start" x="76.69" y="-243.2" font-family="Arial" font-size="14.00">body_en_us </text>
<text text-anchor="start" x="156.87" y="-243.2" font-family="Arial" font-size="14.00" fill="#666666">[text]</text>
<polygon fill="none" stroke="black" points="69.69,-200.2 69.69,-231 270.17,-231 270.17,-200.2 69.69,-200.2"/>
<text text-anchor="start" x="76.69" y="-212.4" font-family="Arial" font-size="14.00">skills </text>
<text text-anchor="start" x="110.91" y="-212.4" font-family="Arial" font-size="14.00" fill="#666666">[text]</text>
<polygon fill="none" stroke="black" points="69.69,-169.4 69.69,-200.2 270.17,-200.2 270.17,-169.4 69.69,-169.4"/>
<text text-anchor="start" x="76.69" y="-181.6" font-family="Arial" font-size="14.00">url_code </text>
<text text-anchor="start" x="134.28" y="-181.6" font-family="Arial" font-size="14.00" fill="#666666">[text]</text>
<polygon fill="none" stroke="black" points="69.69,-138.6 69.69,-169.4 270.17,-169.4 270.17,-138.6 69.69,-138.6"/>
<text text-anchor="start" x="76.69" y="-150.8" font-family="Arial" font-size="14.00">url_home </text>
<text text-anchor="start" x="138.95" y="-150.8" font-family="Arial" font-size="14.00" fill="#666666">[text]</text>
<polygon fill="none" stroke="black" points="69.69,-107.8 69.69,-138.6 270.17,-138.6 270.17,-107.8 69.69,-107.8"/>
<text text-anchor="start" x="76.69" y="-120" font-family="Arial" font-size="14.00">downloads </text>
<text text-anchor="start" x="147.52" y="-120" font-family="Arial" font-size="14.00" fill="#666666">[int]</text>
<polygon fill="none" stroke="black" points="69.69,-77 69.69,-107.8 270.17,-107.8 270.17,-77 69.69,-77"/>
<text text-anchor="start" x="76.69" y="-89.2" font-family="Arial" font-size="14.00">pickup </text>
<text text-anchor="start" x="121.05" y="-89.2" font-family="Arial" font-size="14.00" fill="#666666">[tinyint(1)]</text>
<polygon fill="none" stroke="black" points="69.69,-46.2 69.69,-77 270.17,-77 270.17,-46.2 69.69,-46.2"/>
<text text-anchor="start" x="76.69" y="-58.4" font-family="Arial" font-size="14.00">visible </text>
<text text-anchor="start" x="119.48" y="-58.4" font-family="Arial" font-size="14.00" fill="#666666">[tinyint(1)]</text>
<polygon fill="none" stroke="black" stroke-width="3" points="68.19,-44.7 68.19,-483.7 271.67,-483.7 271.67,-44.7 68.19,-44.7"/>
</g>
<!-- product_images -->
<g id="node2" class="node">
<title>product_images</title>
<polygon fill="#efefef" stroke="none" points="43.2,-700 43.2,-735.6 296.66,-735.6 296.66,-700 43.2,-700"/>
<polygon fill="none" stroke="black" points="43.2,-700 43.2,-735.6 296.66,-735.6 296.66,-700 43.2,-700"/>
<text text-anchor="start" x="50.2" y="-713.4" font-family="Arial Bold" font-size="18.00">product_images</text>
<text text-anchor="start" x="165.17" y="-713.4" font-family="Arial" font-size="14.00">    </text>
<text text-anchor="start" x="196.29" y="-713.4" font-family="Arial" font-size="14.00" fill="#666666">[BASE TABLE]</text>
<polygon fill="none" stroke="black" points="43.2,-669.2 43.2,-700 296.66,-700 296.66,-669.2 43.2,-669.2"/>
<text text-anchor="start" x="50.2" y="-681.4" font-family="Arial" font-size="14.00">product_id </text>
<text text-anchor="start" x="119.47" y="-681.4" font-family="Arial" font-size="14.00" fill="#666666">[int]</text>
<polygon fill="none" stroke="black" points="43.2,-638.4 43.2,-669.2 296.66,-669.2 296.66,-638.4 43.2,-638.4"/>
<text text-anchor="start" x="50.2" y="-650.6" font-family="Arial" font-size="14.00">row_no </text>
<text text-anchor="start" x="100.01" y="-650.6" font-family="Arial" font-size="14.00" fill="#666666">[int]</text>
<polygon fill="none" stroke="black" points="43.2,-607.6 43.2,-638.4 296.66,-638.4 296.66,-607.6 43.2,-607.6"/>
<text text-anchor="start" x="50.2" y="-619.8" font-family="Arial" font-size="14.00">data </text>
<text text-anchor="start" x="81.34" y="-619.8" font-family="Arial" font-size="14.00" fill="#666666">[text]</text>
</g>
<!-- product_images&#45;&gt;products -->
<g id="edge1" class="edge">
<title>product_images:product_id&#45;&gt;products:id</title>
<path fill="none" stroke="black" d="M307.87,-683.87C409.15,-669.01 380.87,-431.2 271.17,-431.2"/>
<polygon fill="black" stroke="black" points="307.97,-683.87 297.67,-680.09 302.65,-684.24 298.33,-684.55 298.33,-684.55 298.33,-684.55 302.65,-684.24 298.31,-689.06 307.97,-683.87"/>
<text text-anchor="start" x="304.66" y="-694.6" font-family="Arial" font-size="10.00">FOREIGN KEY (product_id) REFERENCES products (id)</text>
</g>
</g>
</svg>
