<?xml version="1.0" encoding="UTF-8" standalone="no"?>
<!DOCTYPE svg PUBLIC "-//W3C//DTD SVG 1.1//EN"
 "http://www.w3.org/Graphics/SVG/1.1/DTD/svg11.dtd">
<!-- Generated by graphviz version 2.40.1 (20161225.0304)
 -->
<!-- Title: products Pages: 1 -->
<svg width="588pt" height="772pt"
 viewBox="0.00 0.00 587.50 772.00" xmlns="http://www.w3.org/2000/svg" xmlns:xlink="http://www.w3.org/1999/xlink">
<g id="graph0" class="graph" transform="scale(1 1) rotate(0) translate(4 768)">
<title>products</title>
<polygon fill="#ffffff" stroke="transparent" points="-4,4 -4,-768 583.5,-768 583.5,4 -4,4"/>
<!-- products -->
<g id="node1" class="node">
<title>products</title>
<polygon fill="#efefef" stroke="transparent" points="73.5,-435.5 73.5,-470.5 283.5,-470.5 283.5,-435.5 73.5,-435.5"/>
<polygon fill="none" stroke="#000000" points="73.5,-435.5 73.5,-470.5 283.5,-470.5 283.5,-435.5 73.5,-435.5"/>
<text text-anchor="start" x="80.2064" y="-448.3" font-family="Arial Bold" font-size="18.00" fill="#000000">products</text>
<text text-anchor="start" x="149.2256" y="-448.3" font-family="Arial" font-size="14.00" fill="#000000">    </text>
<text text-anchor="start" x="183.4304" y="-448.3" font-family="Arial" font-size="14.00" fill="#666666">[BASE TABLE]</text>
<polygon fill="none" stroke="#000000" points="73.5,-405.5 73.5,-435.5 283.5,-435.5 283.5,-405.5 73.5,-405.5"/>
<text text-anchor="start" x="80.5" y="-416.9" font-family="Arial" font-size="14.00" fill="#000000">id </text>
<text text-anchor="start" x="95.2798" y="-416.9" font-family="Arial" font-size="14.00" fill="#666666">[int]</text>
<polygon fill="none" stroke="#000000" points="73.5,-375.5 73.5,-405.5 283.5,-405.5 283.5,-375.5 73.5,-375.5"/>
<text text-anchor="start" x="80.5" y="-386.9" font-family="Arial" font-size="14.00" fill="#000000">title_ja_jp </text>
<text text-anchor="start" x="143.5112" y="-386.9" font-family="Arial" font-size="14.00" fill="#666666">[varchar(255)]</text>
<polygon fill="none" stroke="#000000" points="73.5,-345.5 73.5,-375.5 283.5,-375.5 283.5,-345.5 73.5,-345.5"/>
<text text-anchor="start" x="80.5" y="-356.9" font-family="Arial" font-size="14.00" fill="#000000">title_en_us </text>
<text text-anchor="start" x="152.0806" y="-356.9" font-family="Arial" font-size="14.00" fill="#666666">[varchar(255)]</text>
<polygon fill="none" stroke="#000000" points="73.5,-315.5 73.5,-345.5 283.5,-345.5 283.5,-315.5 73.5,-315.5"/>
<text text-anchor="start" x="80.5" y="-326.9" font-family="Arial" font-size="14.00" fill="#000000">subject_ja_jp </text>
<text text-anchor="start" x="166.0792" y="-326.9" font-family="Arial" font-size="14.00" fill="#666666">[varchar(255)]</text>
<polygon fill="none" stroke="#000000" points="73.5,-285.5 73.5,-315.5 283.5,-315.5 283.5,-285.5 73.5,-285.5"/>
<text text-anchor="start" x="80.5" y="-296.9" font-family="Arial" font-size="14.00" fill="#000000">subject_en_us </text>
<text text-anchor="start" x="174.6486" y="-296.9" font-family="Arial" font-size="14.00" fill="#666666">[varchar(255)]</text>
<polygon fill="none" stroke="#000000" points="73.5,-255.5 73.5,-285.5 283.5,-285.5 283.5,-255.5 73.5,-255.5"/>
<text text-anchor="start" x="80.5" y="-266.9" font-family="Arial" font-size="14.00" fill="#000000">body_ja_jp </text>
<text text-anchor="start" x="152.082" y="-266.9" font-family="Arial" font-size="14.00" fill="#666666">[text]</text>
<polygon fill="none" stroke="#000000" points="73.5,-225.5 73.5,-255.5 283.5,-255.5 283.5,-225.5 73.5,-225.5"/>
<text text-anchor="start" x="80.5" y="-236.9" font-family="Arial" font-size="14.00" fill="#000000">body_en_us </text>
<text text-anchor="start" x="160.6514" y="-236.9" font-family="Arial" font-size="14.00" fill="#666666">[text]</text>
<polygon fill="none" stroke="#000000" points="73.5,-195.5 73.5,-225.5 283.5,-225.5 283.5,-195.5 73.5,-195.5"/>
<text text-anchor="start" x="80.5" y="-206.9" font-family="Arial" font-size="14.00" fill="#000000">skills </text>
<text text-anchor="start" x="114.7104" y="-206.9" font-family="Arial" font-size="14.00" fill="#666666">[text]</text>
<polygon fill="none" stroke="#000000" points="73.5,-165.5 73.5,-195.5 283.5,-195.5 283.5,-165.5 73.5,-165.5"/>
<text text-anchor="start" x="80.5" y="-176.9" font-family="Arial" font-size="14.00" fill="#000000">url_code </text>
<text text-anchor="start" x="138.0708" y="-176.9" font-family="Arial" font-size="14.00" fill="#666666">[text]</text>
<polygon fill="none" stroke="#000000" points="73.5,-135.5 73.5,-165.5 283.5,-165.5 283.5,-135.5 73.5,-135.5"/>
<text text-anchor="start" x="80.5" y="-146.9" font-family="Arial" font-size="14.00" fill="#000000">url_home </text>
<text text-anchor="start" x="142.7314" y="-146.9" font-family="Arial" font-size="14.00" fill="#666666">[text]</text>
<polygon fill="none" stroke="#000000" points="73.5,-105.5 73.5,-135.5 283.5,-135.5 283.5,-105.5 73.5,-105.5"/>
<text text-anchor="start" x="80.5" y="-116.9" font-family="Arial" font-size="14.00" fill="#000000">downloads </text>
<text text-anchor="start" x="151.2994" y="-116.9" font-family="Arial" font-size="14.00" fill="#666666">[int]</text>
<polygon fill="none" stroke="#000000" points="73.5,-75.5 73.5,-105.5 283.5,-105.5 283.5,-75.5 73.5,-75.5"/>
<text text-anchor="start" x="80.5" y="-86.9" font-family="Arial" font-size="14.00" fill="#000000">pickup </text>
<text text-anchor="start" x="124.845" y="-86.9" font-family="Arial" font-size="14.00" fill="#666666">[tinyint(1)]</text>
<polygon fill="none" stroke="#000000" points="73.5,-45.5 73.5,-75.5 283.5,-75.5 283.5,-45.5 73.5,-45.5"/>
<text text-anchor="start" x="80.5" y="-56.9" font-family="Arial" font-size="14.00" fill="#000000">visible </text>
<text text-anchor="start" x="123.2756" y="-56.9" font-family="Arial" font-size="14.00" fill="#666666">[tinyint(1)]</text>
<polygon fill="none" stroke="#000000" stroke-width="3" points="72,-44.5 72,-472.5 285,-472.5 285,-44.5 72,-44.5"/>
</g>
<!-- product_images -->
<g id="node2" class="node">
<title>product_images</title>
<polygon fill="#efefef" stroke="transparent" points="43.5,-685.5 43.5,-720.5 312.5,-720.5 312.5,-685.5 43.5,-685.5"/>
<polygon fill="none" stroke="#000000" points="43.5,-685.5 43.5,-720.5 312.5,-720.5 312.5,-685.5 43.5,-685.5"/>
<text text-anchor="start" x="50.2008" y="-698.3" font-family="Arial Bold" font-size="18.00" fill="#000000">product_images</text>
<text text-anchor="start" x="178.2312" y="-698.3" font-family="Arial" font-size="14.00" fill="#000000">    </text>
<text text-anchor="start" x="212.436" y="-698.3" font-family="Arial" font-size="14.00" fill="#666666">[BASE TABLE]</text>
<polygon fill="none" stroke="#000000" points="43.5,-655.5 43.5,-685.5 312.5,-685.5 312.5,-655.5 43.5,-655.5"/>
<text text-anchor="start" x="50.5" y="-666.9" font-family="Arial" font-size="14.00" fill="#000000">product_id    </text>
<text text-anchor="start" x="150.0582" y="-666.9" font-family="Arial" font-size="14.00" fill="#666666">[int]</text>
<polygon fill="none" stroke="#000000" points="43.5,-625.5 43.5,-655.5 312.5,-655.5 312.5,-625.5 43.5,-625.5"/>
<text text-anchor="start" x="50.5" y="-636.9" font-family="Arial" font-size="14.00" fill="#000000">row_no    </text>
<text text-anchor="start" x="130.6024" y="-636.9" font-family="Arial" font-size="14.00" fill="#666666">[int]</text>
<polygon fill="none" stroke="#000000" points="43.5,-595.5 43.5,-625.5 312.5,-625.5 312.5,-595.5 43.5,-595.5"/>
<text text-anchor="start" x="50.5" y="-606.9" font-family="Arial" font-size="14.00" fill="#000000">data    </text>
<text text-anchor="start" x="111.9432" y="-606.9" font-family="Arial" font-size="14.00" fill="#666666">[text]</text>
</g>
<!-- product_images&#45;&gt;products -->
<g id="edge1" class="edge">
<title>product_images:product_id&#45;&gt;products:id</title>
<path fill="none" stroke="#000000" d="M322.4907,-669.3848C362.0903,-659.7322 344.1705,-589.7983 312.5,-553 242.4271,-471.5817 143.5729,-598.4183 73.5,-517 45.5226,-484.4928 30.6111,-420.5 73.5,-420.5"/>
<polygon fill="#000000" stroke="#000000" points="322.4383,-669.3905 312.0007,-666.0278 317.4691,-669.9453 312.5,-670.5 312.5,-670.5 312.5,-670.5 317.4691,-669.9453 312.9993,-674.9722 322.4383,-669.3905 322.4383,-669.3905"/>
<text text-anchor="start" x="319.548" y="-680.5" font-family="Arial" font-size="10.00" fill="#000000">FOREIGN KEY (product_id) REFERENCES products (id)</text>
</g>
</g>
</svg>
