<?xml version="1.0" encoding="UTF-8" standalone="no"?>
<!DOCTYPE svg PUBLIC "-//W3C//DTD SVG 1.1//EN"
 "http://www.w3.org/Graphics/SVG/1.1/DTD/svg11.dtd">
<!-- Generated by graphviz version 2.40.1 (20161225.0304)
 -->
<!-- Title: product_images Pages: 1 -->
<svg width="590pt" height="772pt"
 viewBox="0.00 0.00 589.50 772.00" xmlns="http://www.w3.org/2000/svg" xmlns:xlink="http://www.w3.org/1999/xlink">
<g id="graph0" class="graph" transform="scale(1 1) rotate(0) translate(4 768)">
<title>product_images</title>
<polygon fill="#ffffff" stroke="transparent" points="-4,4 -4,-768 585.5,-768 585.5,4 -4,4"/>
<!-- product_images -->
<g id="node1" class="node">
<title>product_images</title>
<polygon fill="#efefef" stroke="transparent" points="267,-682.5 267,-717.5 536,-717.5 536,-682.5 267,-682.5"/>
<polygon fill="none" stroke="#000000" points="267,-682.5 267,-717.5 536,-717.5 536,-682.5 267,-682.5"/>
<text text-anchor="start" x="273.7008" y="-695.3" font-family="Arial Bold" font-size="18.00" fill="#000000">product_images</text>
<text text-anchor="start" x="401.7312" y="-695.3" font-family="Arial" font-size="14.00" fill="#000000">    </text>
<text text-anchor="start" x="435.936" y="-695.3" font-family="Arial" font-size="14.00" fill="#666666">[BASE TABLE]</text>
<polygon fill="none" stroke="#000000" points="267,-652.5 267,-682.5 536,-682.5 536,-652.5 267,-652.5"/>
<text text-anchor="start" x="274" y="-663.9" font-family="Arial" font-size="14.00" fill="#000000">product_id </text>
<text text-anchor="start" x="343.244" y="-663.9" font-family="Arial" font-size="14.00" fill="#666666">[int]</text>
<polygon fill="none" stroke="#000000" points="267,-622.5 267,-652.5 536,-652.5 536,-622.5 267,-622.5"/>
<text text-anchor="start" x="274" y="-633.9" font-family="Arial" font-size="14.00" fill="#000000">row_no </text>
<text text-anchor="start" x="323.7882" y="-633.9" font-family="Arial" font-size="14.00" fill="#666666">[int]</text>
<polygon fill="none" stroke="#000000" points="267,-592.5 267,-622.5 536,-622.5 536,-592.5 267,-592.5"/>
<text text-anchor="start" x="274" y="-603.9" font-family="Arial" font-size="14.00" fill="#000000">data </text>
<text text-anchor="start" x="305.129" y="-603.9" font-family="Arial" font-size="14.00" fill="#666666">[text]</text>
<polygon fill="none" stroke="#000000" stroke-width="3" points="265,-591.5 265,-719.5 537,-719.5 537,-591.5 265,-591.5"/>
</g>
<!-- products -->
<g id="node2" class="node">
<title>products</title>
<polygon fill="#efefef" stroke="transparent" points="289,-432.5 289,-467.5 514,-467.5 514,-432.5 289,-432.5"/>
<polygon fill="none" stroke="#000000" points="289,-432.5 289,-467.5 514,-467.5 514,-432.5 289,-432.5"/>
<text text-anchor="start" x="303.2064" y="-445.3" font-family="Arial Bold" font-size="18.00" fill="#000000">products</text>
<text text-anchor="start" x="372.2256" y="-445.3" font-family="Arial" font-size="14.00" fill="#000000">    </text>
<text text-anchor="start" x="406.4304" y="-445.3" font-family="Arial" font-size="14.00" fill="#666666">[BASE TABLE]</text>
<polygon fill="none" stroke="#000000" points="289,-402.5 289,-432.5 514,-432.5 514,-402.5 289,-402.5"/>
<text text-anchor="start" x="296" y="-413.9" font-family="Arial" font-size="14.00" fill="#000000">id    </text>
<text text-anchor="start" x="341.094" y="-413.9" font-family="Arial" font-size="14.00" fill="#666666">[int]</text>
<polygon fill="none" stroke="#000000" points="289,-372.5 289,-402.5 514,-402.5 514,-372.5 289,-372.5"/>
<text text-anchor="start" x="296" y="-383.9" font-family="Arial" font-size="14.00" fill="#000000">title_ja_jp    </text>
<text text-anchor="start" x="389.3254" y="-383.9" font-family="Arial" font-size="14.00" fill="#666666">[varchar(255)]</text>
<polygon fill="none" stroke="#000000" points="289,-342.5 289,-372.5 514,-372.5 514,-342.5 289,-342.5"/>
<text text-anchor="start" x="296" y="-353.9" font-family="Arial" font-size="14.00" fill="#000000">title_en_us    </text>
<text text-anchor="start" x="397.8948" y="-353.9" font-family="Arial" font-size="14.00" fill="#666666">[varchar(255)]</text>
<polygon fill="none" stroke="#000000" points="289,-312.5 289,-342.5 514,-342.5 514,-312.5 289,-312.5"/>
<text text-anchor="start" x="296" y="-323.9" font-family="Arial" font-size="14.00" fill="#000000">subject_ja_jp    </text>
<text text-anchor="start" x="411.8934" y="-323.9" font-family="Arial" font-size="14.00" fill="#666666">[varchar(255)]</text>
<polygon fill="none" stroke="#000000" points="289,-282.5 289,-312.5 514,-312.5 514,-282.5 289,-282.5"/>
<text text-anchor="start" x="295.709" y="-293.9" font-family="Arial" font-size="14.00" fill="#000000">subject_en_us    </text>
<text text-anchor="start" x="420.1718" y="-293.9" font-family="Arial" font-size="14.00" fill="#666666">[varchar(255)]</text>
<polygon fill="none" stroke="#000000" points="289,-252.5 289,-282.5 514,-282.5 514,-252.5 289,-252.5"/>
<text text-anchor="start" x="296" y="-263.9" font-family="Arial" font-size="14.00" fill="#000000">body_ja_jp    </text>
<text text-anchor="start" x="397.8962" y="-263.9" font-family="Arial" font-size="14.00" fill="#666666">[text]</text>
<polygon fill="none" stroke="#000000" points="289,-222.5 289,-252.5 514,-252.5 514,-222.5 289,-222.5"/>
<text text-anchor="start" x="296" y="-233.9" font-family="Arial" font-size="14.00" fill="#000000">body_en_us    </text>
<text text-anchor="start" x="406.4656" y="-233.9" font-family="Arial" font-size="14.00" fill="#666666">[text]</text>
<polygon fill="none" stroke="#000000" points="289,-192.5 289,-222.5 514,-222.5 514,-192.5 289,-192.5"/>
<text text-anchor="start" x="296" y="-203.9" font-family="Arial" font-size="14.00" fill="#000000">skills    </text>
<text text-anchor="start" x="360.5246" y="-203.9" font-family="Arial" font-size="14.00" fill="#666666">[text]</text>
<polygon fill="none" stroke="#000000" points="289,-162.5 289,-192.5 514,-192.5 514,-162.5 289,-162.5"/>
<text text-anchor="start" x="296" y="-173.9" font-family="Arial" font-size="14.00" fill="#000000">url_code    </text>
<text text-anchor="start" x="383.885" y="-173.9" font-family="Arial" font-size="14.00" fill="#666666">[text]</text>
<polygon fill="none" stroke="#000000" points="289,-132.5 289,-162.5 514,-162.5 514,-132.5 289,-132.5"/>
<text text-anchor="start" x="296" y="-143.9" font-family="Arial" font-size="14.00" fill="#000000">url_home    </text>
<text text-anchor="start" x="388.5456" y="-143.9" font-family="Arial" font-size="14.00" fill="#666666">[text]</text>
<polygon fill="none" stroke="#000000" points="289,-102.5 289,-132.5 514,-132.5 514,-102.5 289,-102.5"/>
<text text-anchor="start" x="296" y="-113.9" font-family="Arial" font-size="14.00" fill="#000000">downloads    </text>
<text text-anchor="start" x="397.1136" y="-113.9" font-family="Arial" font-size="14.00" fill="#666666">[int]</text>
<polygon fill="none" stroke="#000000" points="289,-72.5 289,-102.5 514,-102.5 514,-72.5 289,-72.5"/>
<text text-anchor="start" x="296" y="-83.9" font-family="Arial" font-size="14.00" fill="#000000">pickup    </text>
<text text-anchor="start" x="370.6592" y="-83.9" font-family="Arial" font-size="14.00" fill="#666666">[tinyint(1)]</text>
<polygon fill="none" stroke="#000000" points="289,-42.5 289,-72.5 514,-72.5 514,-42.5 289,-42.5"/>
<text text-anchor="start" x="296" y="-53.9" font-family="Arial" font-size="14.00" fill="#000000">visible    </text>
<text text-anchor="start" x="369.0898" y="-53.9" font-family="Arial" font-size="14.00" fill="#666666">[tinyint(1)]</text>
</g>
<!-- product_images&#45;&gt;products -->
<g id="edge1" class="edge">
<title>product_images:product_id&#45;&gt;products:id</title>
<path fill="none" stroke="#000000" d="M256.933,-666.7828C156.9219,-652.1191 180.9451,-417.5 289,-417.5"/>
<polygon fill="#000000" stroke="#000000" points="257.0253,-666.7893 266.6802,-671.9886 262.0126,-667.1447 267,-667.5 267,-667.5 267,-667.5 262.0126,-667.1447 267.3198,-663.0114 257.0253,-666.7893 257.0253,-666.7893"/>
<text text-anchor="start" x="7.048" y="-677.5" font-family="Arial" font-size="10.00" fill="#000000">FOREIGN KEY (product_id) REFERENCES products (id)</text>
</g>
</g>
</svg>
