<?xml version="1.0" encoding="UTF-8" standalone="no"?>
<!DOCTYPE svg PUBLIC "-//W3C//DTD SVG 1.1//EN"
 "http://www.w3.org/Graphics/SVG/1.1/DTD/svg11.dtd">
<!-- Generated by graphviz version 2.40.1 (20161225.0304)
 -->
<!-- Title: database Pages: 1 -->
<svg width="1045pt" height="399pt"
 viewBox="0.00 0.00 1045.00 399.00" xmlns="http://www.w3.org/2000/svg" xmlns:xlink="http://www.w3.org/1999/xlink">
<g id="graph0" class="graph" transform="scale(1 1) rotate(0) translate(4 395)">
<title>database</title>
<polygon fill="#ffffff" stroke="transparent" points="-4,4 -4,-395 1041,-395 1041,4 -4,4"/>
<!-- articles_metadata -->
<g id="node1" class="node">
<title>articles_metadata</title>
<polygon fill="#efefef" stroke="transparent" points="43.5,-312.5 43.5,-347.5 326.5,-347.5 326.5,-312.5 43.5,-312.5"/>
<polygon fill="none" stroke="#000000" points="43.5,-312.5 43.5,-347.5 326.5,-347.5 326.5,-312.5 43.5,-312.5"/>
<text text-anchor="start" x="50.2015" y="-325.3" font-family="Arial Bold" font-size="18.00" fill="#000000">articles_metadata</text>
<text text-anchor="start" x="192.2305" y="-325.3" font-family="Arial" font-size="14.00" fill="#000000">    </text>
<text text-anchor="start" x="226.4353" y="-325.3" font-family="Arial" font-size="14.00" fill="#666666">[BASE TABLE]</text>
<polygon fill="none" stroke="#000000" points="43.5,-282.5 43.5,-312.5 326.5,-312.5 326.5,-282.5 43.5,-282.5"/>
<text text-anchor="start" x="50.5" y="-293.9" font-family="Arial" font-size="14.00" fill="#000000">id    </text>
<text text-anchor="start" x="95.594" y="-293.9" font-family="Arial" font-size="14.00" fill="#666666">[char(20)]</text>
<polygon fill="none" stroke="#000000" points="43.5,-252.5 43.5,-282.5 326.5,-282.5 326.5,-252.5 43.5,-252.5"/>
<text text-anchor="start" x="50.5" y="-263.9" font-family="Arial" font-size="14.00" fill="#000000">title    </text>
<text text-anchor="start" x="106.4818" y="-263.9" font-family="Arial" font-size="14.00" fill="#666666">[varchar(255)]</text>
<polygon fill="none" stroke="#000000" points="43.5,-222.5 43.5,-252.5 326.5,-252.5 326.5,-222.5 43.5,-222.5"/>
<text text-anchor="start" x="50.5" y="-233.9" font-family="Arial" font-size="14.00" fill="#000000">body    </text>
<text text-anchor="start" x="115.0526" y="-233.9" font-family="Arial" font-size="14.00" fill="#666666">[text]</text>
<polygon fill="none" stroke="#000000" points="43.5,-192.5 43.5,-222.5 326.5,-222.5 326.5,-192.5 43.5,-192.5"/>
<text text-anchor="start" x="50.5" y="-203.9" font-family="Arial" font-size="14.00" fill="#000000">tags    </text>
<text text-anchor="start" x="111.1606" y="-203.9" font-family="Arial" font-size="14.00" fill="#666666">[varchar(255)]</text>
<polygon fill="none" stroke="#000000" points="43.5,-162.5 43.5,-192.5 326.5,-192.5 326.5,-162.5 43.5,-162.5"/>
<text text-anchor="start" x="50.5" y="-173.9" font-family="Arial" font-size="14.00" fill="#000000">url    </text>
<text text-anchor="start" x="100.2546" y="-173.9" font-family="Arial" font-size="14.00" fill="#666666">[text]</text>
<polygon fill="none" stroke="#000000" points="43.5,-132.5 43.5,-162.5 326.5,-162.5 326.5,-132.5 43.5,-132.5"/>
<text text-anchor="start" x="50.5" y="-143.9" font-family="Arial" font-size="14.00" fill="#000000">likes_count    </text>
<text text-anchor="start" x="154.7216" y="-143.9" font-family="Arial" font-size="14.00" fill="#666666">[int]</text>
<polygon fill="none" stroke="#000000" points="43.5,-102.5 43.5,-132.5 326.5,-132.5 326.5,-102.5 43.5,-102.5"/>
<text text-anchor="start" x="50.5" y="-113.9" font-family="Arial" font-size="14.00" fill="#000000">comments_count    </text>
<text text-anchor="start" x="191.2854" y="-113.9" font-family="Arial" font-size="14.00" fill="#666666">[int]</text>
<polygon fill="none" stroke="#000000" points="43.5,-72.5 43.5,-102.5 326.5,-102.5 326.5,-72.5 43.5,-72.5"/>
<text text-anchor="start" x="50.5" y="-83.9" font-family="Arial" font-size="14.00" fill="#000000">created_at    </text>
<text text-anchor="start" x="150.8422" y="-83.9" font-family="Arial" font-size="14.00" fill="#666666">[timestamp]</text>
<polygon fill="none" stroke="#000000" points="43.5,-42.5 43.5,-72.5 326.5,-72.5 326.5,-42.5 43.5,-42.5"/>
<text text-anchor="start" x="50.5" y="-53.9" font-family="Arial" font-size="14.00" fill="#000000">updated_at    </text>
<text text-anchor="start" x="154.7468" y="-53.9" font-family="Arial" font-size="14.00" fill="#666666">[timestamp]</text>
</g>
<!-- articles_pickup -->
<g id="node2" class="node">
<title>articles_pickup</title>
<polygon fill="#efefef" stroke="transparent" points="430.5,-207.5 430.5,-242.5 690.5,-242.5 690.5,-207.5 430.5,-207.5"/>
<polygon fill="none" stroke="#000000" points="430.5,-207.5 430.5,-242.5 690.5,-242.5 690.5,-207.5 430.5,-207.5"/>
<text text-anchor="start" x="437.2089" y="-220.3" font-family="Arial Bold" font-size="18.00" fill="#000000">articles_pickup</text>
<text text-anchor="start" x="556.2231" y="-220.3" font-family="Arial" font-size="14.00" fill="#000000">    </text>
<text text-anchor="start" x="590.4279" y="-220.3" font-family="Arial" font-size="14.00" fill="#666666">[BASE TABLE]</text>
<polygon fill="none" stroke="#000000" points="430.5,-177.5 430.5,-207.5 690.5,-207.5 690.5,-177.5 430.5,-177.5"/>
<text text-anchor="start" x="437.5" y="-188.9" font-family="Arial" font-size="14.00" fill="#000000">id    </text>
<text text-anchor="start" x="482.594" y="-188.9" font-family="Arial" font-size="14.00" fill="#666666">[char(20)]</text>
<polygon fill="none" stroke="#000000" points="430.5,-147.5 430.5,-177.5 690.5,-177.5 690.5,-147.5 430.5,-147.5"/>
<text text-anchor="start" x="437.5" y="-158.9" font-family="Arial" font-size="14.00" fill="#000000">data    </text>
<text text-anchor="start" x="498.9432" y="-158.9" font-family="Arial" font-size="14.00" fill="#666666">[text]</text>
</g>
<!-- version -->
<g id="node3" class="node">
<title>version</title>
<polygon fill="#efefef" stroke="transparent" points="795.5,-192.5 795.5,-227.5 994.5,-227.5 994.5,-192.5 795.5,-192.5"/>
<polygon fill="none" stroke="#000000" points="795.5,-192.5 795.5,-227.5 994.5,-227.5 994.5,-192.5 795.5,-192.5"/>
<text text-anchor="start" x="802.2135" y="-205.3" font-family="Arial Bold" font-size="18.00" fill="#000000">version</text>
<text text-anchor="start" x="860.2185" y="-205.3" font-family="Arial" font-size="14.00" fill="#000000">    </text>
<text text-anchor="start" x="894.4233" y="-205.3" font-family="Arial" font-size="14.00" fill="#666666">[BASE TABLE]</text>
<polygon fill="none" stroke="#000000" points="795.5,-162.5 795.5,-192.5 994.5,-192.5 994.5,-162.5 795.5,-162.5"/>
<text text-anchor="start" x="802.0463" y="-173.9" font-family="Arial" font-size="14.00" fill="#000000">last_update    </text>
<text text-anchor="start" x="908.6171" y="-173.9" font-family="Arial" font-size="14.00" fill="#666666">[varchar(20)]</text>
</g>
</g>
</svg>
