<?xml version="1.0" encoding="UTF-8" standalone="no"?>
<!DOCTYPE svg PUBLIC "-//W3C//DTD SVG 1.1//EN"
 "http://www.w3.org/Graphics/SVG/1.1/DTD/svg11.dtd">
<!-- Generated by graphviz version 2.40.1 (20161225.0304)
 -->
<!-- Title: database Pages: 1 -->
<svg width="2408pt" height="976pt"
 viewBox="0.00 0.00 2408.00 976.00" xmlns="http://www.w3.org/2000/svg" xmlns:xlink="http://www.w3.org/1999/xlink">
<g id="graph0" class="graph" transform="scale(1 1) rotate(0) translate(4 972)">
<title>database</title>
<polygon fill="#ffffff" stroke="transparent" points="-4,4 -4,-972 2404,-972 2404,4 -4,4"/>
<!-- articles_metadata -->
<g id="node1" class="node">
<title>articles_metadata</title>
<polygon fill="#efefef" stroke="transparent" points="43.5,-889.5 43.5,-924.5 326.5,-924.5 326.5,-889.5 43.5,-889.5"/>
<polygon fill="none" stroke="#000000" points="43.5,-889.5 43.5,-924.5 326.5,-924.5 326.5,-889.5 43.5,-889.5"/>
<text text-anchor="start" x="50.2015" y="-902.3" font-family="Arial Bold" font-size="18.00" fill="#000000">articles_metadata</text>
<text text-anchor="start" x="192.2305" y="-902.3" font-family="Arial" font-size="14.00" fill="#000000">    </text>
<text text-anchor="start" x="226.4353" y="-902.3" font-family="Arial" font-size="14.00" fill="#666666">[BASE TABLE]</text>
<polygon fill="none" stroke="#000000" points="43.5,-859.5 43.5,-889.5 326.5,-889.5 326.5,-859.5 43.5,-859.5"/>
<text text-anchor="start" x="50.5" y="-870.9" font-family="Arial" font-size="14.00" fill="#000000">id    </text>
<text text-anchor="start" x="95.594" y="-870.9" font-family="Arial" font-size="14.00" fill="#666666">[char(20)]</text>
<polygon fill="none" stroke="#000000" points="43.5,-829.5 43.5,-859.5 326.5,-859.5 326.5,-829.5 43.5,-829.5"/>
<text text-anchor="start" x="50.5" y="-840.9" font-family="Arial" font-size="14.00" fill="#000000">title    </text>
<text text-anchor="start" x="106.4818" y="-840.9" font-family="Arial" font-size="14.00" fill="#666666">[varchar(255)]</text>
<polygon fill="none" stroke="#000000" points="43.5,-799.5 43.5,-829.5 326.5,-829.5 326.5,-799.5 43.5,-799.5"/>
<text text-anchor="start" x="50.5" y="-810.9" font-family="Arial" font-size="14.00" fill="#000000">body    </text>
<text text-anchor="start" x="115.0526" y="-810.9" font-family="Arial" font-size="14.00" fill="#666666">[text]</text>
<polygon fill="none" stroke="#000000" points="43.5,-769.5 43.5,-799.5 326.5,-799.5 326.5,-769.5 43.5,-769.5"/>
<text text-anchor="start" x="50.5" y="-780.9" font-family="Arial" font-size="14.00" fill="#000000">tags    </text>
<text text-anchor="start" x="111.1606" y="-780.9" font-family="Arial" font-size="14.00" fill="#666666">[varchar(255)]</text>
<polygon fill="none" stroke="#000000" points="43.5,-739.5 43.5,-769.5 326.5,-769.5 326.5,-739.5 43.5,-739.5"/>
<text text-anchor="start" x="50.5" y="-750.9" font-family="Arial" font-size="14.00" fill="#000000">url    </text>
<text text-anchor="start" x="100.2546" y="-750.9" font-family="Arial" font-size="14.00" fill="#666666">[text]</text>
<polygon fill="none" stroke="#000000" points="43.5,-709.5 43.5,-739.5 326.5,-739.5 326.5,-709.5 43.5,-709.5"/>
<text text-anchor="start" x="50.5" y="-720.9" font-family="Arial" font-size="14.00" fill="#000000">likes_count    </text>
<text text-anchor="start" x="154.7216" y="-720.9" font-family="Arial" font-size="14.00" fill="#666666">[int]</text>
<polygon fill="none" stroke="#000000" points="43.5,-679.5 43.5,-709.5 326.5,-709.5 326.5,-679.5 43.5,-679.5"/>
<text text-anchor="start" x="50.5" y="-690.9" font-family="Arial" font-size="14.00" fill="#000000">stocks_count    </text>
<text text-anchor="start" x="166.399" y="-690.9" font-family="Arial" font-size="14.00" fill="#666666">[int]</text>
<polygon fill="none" stroke="#000000" points="43.5,-649.5 43.5,-679.5 326.5,-679.5 326.5,-649.5 43.5,-649.5"/>
<text text-anchor="start" x="50.5" y="-660.9" font-family="Arial" font-size="14.00" fill="#000000">comments_count    </text>
<text text-anchor="start" x="191.2854" y="-660.9" font-family="Arial" font-size="14.00" fill="#666666">[int]</text>
<polygon fill="none" stroke="#000000" points="43.5,-619.5 43.5,-649.5 326.5,-649.5 326.5,-619.5 43.5,-619.5"/>
<text text-anchor="start" x="50.5" y="-630.9" font-family="Arial" font-size="14.00" fill="#000000">created_at    </text>
<text text-anchor="start" x="150.8422" y="-630.9" font-family="Arial" font-size="14.00" fill="#666666">[timestamp]</text>
<polygon fill="none" stroke="#000000" points="43.5,-589.5 43.5,-619.5 326.5,-619.5 326.5,-589.5 43.5,-589.5"/>
<text text-anchor="start" x="50.5" y="-600.9" font-family="Arial" font-size="14.00" fill="#000000">updated_at    </text>
<text text-anchor="start" x="154.7468" y="-600.9" font-family="Arial" font-size="14.00" fill="#666666">[timestamp]</text>
</g>
<!-- articles_pickup -->
<g id="node2" class="node">
<title>articles_pickup</title>
<polygon fill="#efefef" stroke="transparent" points="430.5,-769.5 430.5,-804.5 690.5,-804.5 690.5,-769.5 430.5,-769.5"/>
<polygon fill="none" stroke="#000000" points="430.5,-769.5 430.5,-804.5 690.5,-804.5 690.5,-769.5 430.5,-769.5"/>
<text text-anchor="start" x="437.2089" y="-782.3" font-family="Arial Bold" font-size="18.00" fill="#000000">articles_pickup</text>
<text text-anchor="start" x="556.2231" y="-782.3" font-family="Arial" font-size="14.00" fill="#000000">    </text>
<text text-anchor="start" x="590.4279" y="-782.3" font-family="Arial" font-size="14.00" fill="#666666">[BASE TABLE]</text>
<polygon fill="none" stroke="#000000" points="430.5,-739.5 430.5,-769.5 690.5,-769.5 690.5,-739.5 430.5,-739.5"/>
<text text-anchor="start" x="437.5" y="-750.9" font-family="Arial" font-size="14.00" fill="#000000">id    </text>
<text text-anchor="start" x="482.594" y="-750.9" font-family="Arial" font-size="14.00" fill="#666666">[char(20)]</text>
<polygon fill="none" stroke="#000000" points="430.5,-709.5 430.5,-739.5 690.5,-739.5 690.5,-709.5 430.5,-709.5"/>
<text text-anchor="start" x="437.5" y="-720.9" font-family="Arial" font-size="14.00" fill="#000000">data    </text>
<text text-anchor="start" x="498.9432" y="-720.9" font-family="Arial" font-size="14.00" fill="#666666">[text]</text>
</g>
<!-- career_details -->
<g id="node3" class="node">
<title>career_details</title>
<polygon fill="#efefef" stroke="transparent" points="794.5,-814.5 794.5,-849.5 1048.5,-849.5 1048.5,-814.5 794.5,-814.5"/>
<polygon fill="none" stroke="#000000" points="794.5,-814.5 794.5,-849.5 1048.5,-849.5 1048.5,-814.5 794.5,-814.5"/>
<text text-anchor="start" x="801.2068" y="-827.3" font-family="Arial Bold" font-size="18.00" fill="#000000">career_details</text>
<text text-anchor="start" x="914.2252" y="-827.3" font-family="Arial" font-size="14.00" fill="#000000">    </text>
<text text-anchor="start" x="948.43" y="-827.3" font-family="Arial" font-size="14.00" fill="#666666">[BASE TABLE]</text>
<polygon fill="none" stroke="#000000" points="794.5,-784.5 794.5,-814.5 1048.5,-814.5 1048.5,-784.5 794.5,-784.5"/>
<text text-anchor="start" x="801.5" y="-795.9" font-family="Arial" font-size="14.00" fill="#000000">career_id    </text>
<text text-anchor="start" x="894.0456" y="-795.9" font-family="Arial" font-size="14.00" fill="#666666">[int]</text>
<polygon fill="none" stroke="#000000" points="794.5,-754.5 794.5,-784.5 1048.5,-784.5 1048.5,-754.5 794.5,-754.5"/>
<text text-anchor="start" x="801.5" y="-765.9" font-family="Arial" font-size="14.00" fill="#000000">row_no    </text>
<text text-anchor="start" x="881.6024" y="-765.9" font-family="Arial" font-size="14.00" fill="#666666">[int]</text>
<polygon fill="none" stroke="#000000" points="794.5,-724.5 794.5,-754.5 1048.5,-754.5 1048.5,-724.5 794.5,-724.5"/>
<text text-anchor="start" x="801.5" y="-735.9" font-family="Arial" font-size="14.00" fill="#000000">subject_ja_jp    </text>
<text text-anchor="start" x="917.3934" y="-735.9" font-family="Arial" font-size="14.00" fill="#666666">[varchar(255)]</text>
<polygon fill="none" stroke="#000000" points="794.5,-694.5 794.5,-724.5 1048.5,-724.5 1048.5,-694.5 794.5,-694.5"/>
<text text-anchor="start" x="801.5" y="-705.9" font-family="Arial" font-size="14.00" fill="#000000">subject_en_us    </text>
<text text-anchor="start" x="925.9628" y="-705.9" font-family="Arial" font-size="14.00" fill="#666666">[varchar(255)]</text>
<polygon fill="none" stroke="#000000" points="794.5,-664.5 794.5,-694.5 1048.5,-694.5 1048.5,-664.5 794.5,-664.5"/>
<text text-anchor="start" x="801.5" y="-675.9" font-family="Arial" font-size="14.00" fill="#000000">skills    </text>
<text text-anchor="start" x="866.0246" y="-675.9" font-family="Arial" font-size="14.00" fill="#666666">[text]</text>
</g>
<!-- careers -->
<g id="node4" class="node">
<title>careers</title>
<polygon fill="#efefef" stroke="transparent" points="819.5,-357.5 819.5,-392.5 1022.5,-392.5 1022.5,-357.5 819.5,-357.5"/>
<polygon fill="none" stroke="#000000" points="819.5,-357.5 819.5,-392.5 1022.5,-392.5 1022.5,-357.5 819.5,-357.5"/>
<text text-anchor="start" x="827.2145" y="-370.3" font-family="Arial Bold" font-size="18.00" fill="#000000">careers</text>
<text text-anchor="start" x="887.2175" y="-370.3" font-family="Arial" font-size="14.00" fill="#000000">    </text>
<text text-anchor="start" x="921.4223" y="-370.3" font-family="Arial" font-size="14.00" fill="#666666">[BASE TABLE]</text>
<polygon fill="none" stroke="#000000" points="819.5,-327.5 819.5,-357.5 1022.5,-357.5 1022.5,-327.5 819.5,-327.5"/>
<text text-anchor="start" x="826.5" y="-338.9" font-family="Arial" font-size="14.00" fill="#000000">id    </text>
<text text-anchor="start" x="871.594" y="-338.9" font-family="Arial" font-size="14.00" fill="#666666">[int]</text>
<polygon fill="none" stroke="#000000" points="819.5,-297.5 819.5,-327.5 1022.5,-327.5 1022.5,-297.5 819.5,-297.5"/>
<text text-anchor="start" x="826.5" y="-308.9" font-family="Arial" font-size="14.00" fill="#000000">date    </text>
<text text-anchor="start" x="887.9432" y="-308.9" font-family="Arial" font-size="14.00" fill="#666666">[varchar(255)]</text>
<polygon fill="none" stroke="#000000" points="819.5,-267.5 819.5,-297.5 1022.5,-297.5 1022.5,-267.5 819.5,-267.5"/>
<text text-anchor="start" x="826.5" y="-278.9" font-family="Arial" font-size="14.00" fill="#000000">place    </text>
<text text-anchor="start" x="894.1592" y="-278.9" font-family="Arial" font-size="14.00" fill="#666666">[varchar(255)]</text>
<polygon fill="none" stroke="#000000" points="819.5,-237.5 819.5,-267.5 1022.5,-267.5 1022.5,-237.5 819.5,-237.5"/>
<text text-anchor="start" x="826.5" y="-248.9" font-family="Arial" font-size="14.00" fill="#000000">title_ja_jp    </text>
<text text-anchor="start" x="919.8254" y="-248.9" font-family="Arial" font-size="14.00" fill="#666666">[varchar(255)]</text>
<polygon fill="none" stroke="#000000" points="819.5,-207.5 819.5,-237.5 1022.5,-237.5 1022.5,-207.5 819.5,-207.5"/>
<text text-anchor="start" x="826.493" y="-218.9" font-family="Arial" font-size="14.00" fill="#000000">title_en_us    </text>
<text text-anchor="start" x="928.3878" y="-218.9" font-family="Arial" font-size="14.00" fill="#666666">[varchar(255)]</text>
<polygon fill="none" stroke="#000000" points="819.5,-177.5 819.5,-207.5 1022.5,-207.5 1022.5,-177.5 819.5,-177.5"/>
<text text-anchor="start" x="826.5" y="-188.9" font-family="Arial" font-size="14.00" fill="#000000">favicon    </text>
<text text-anchor="start" x="905.0498" y="-188.9" font-family="Arial" font-size="14.00" fill="#666666">[text]</text>
<polygon fill="none" stroke="#000000" points="819.5,-147.5 819.5,-177.5 1022.5,-177.5 1022.5,-147.5 819.5,-147.5"/>
<text text-anchor="start" x="826.5" y="-158.9" font-family="Arial" font-size="14.00" fill="#000000">url    </text>
<text text-anchor="start" x="876.2546" y="-158.9" font-family="Arial" font-size="14.00" fill="#666666">[text]</text>
<polygon fill="none" stroke="#000000" points="819.5,-117.5 819.5,-147.5 1022.5,-147.5 1022.5,-117.5 819.5,-117.5"/>
<text text-anchor="start" x="826.5" y="-128.9" font-family="Arial" font-size="14.00" fill="#000000">visible    </text>
<text text-anchor="start" x="899.5898" y="-128.9" font-family="Arial" font-size="14.00" fill="#666666">[tinyint(1)]</text>
</g>
<!-- career_details&#45;&gt;careers -->
<g id="edge1" class="edge">
<title>career_details:career_id&#45;&gt;careers:id</title>
<path fill="none" stroke="#000000" d="M784.2093,-798.8143C719.8104,-789.6173 762.2522,-689.9247 794.5,-622 850.5868,-503.8624 966.4132,-554.1376 1022.5,-436 1040.3223,-398.4603 1064.0556,-342.5 1022.5,-342.5"/>
<polygon fill="#000000" stroke="#000000" points="784.5221,-798.835 794.2008,-803.99 789.5111,-799.1675 794.5,-799.5 794.5,-799.5 794.5,-799.5 789.5111,-799.1675 794.7992,-795.01 784.5221,-798.835 784.5221,-798.835"/>
<text text-anchor="start" x="801.557" y="-809.5" font-family="Arial" font-size="10.00" fill="#000000">FOREIGN KEY (career_id) REFERENCES careers (id)</text>
</g>
<!-- certifications -->
<g id="node5" class="node">
<title>certifications</title>
<polygon fill="#efefef" stroke="transparent" points="1153.5,-874.5 1153.5,-909.5 1394.5,-909.5 1394.5,-874.5 1153.5,-874.5"/>
<polygon fill="none" stroke="#000000" points="1153.5,-874.5 1153.5,-909.5 1394.5,-909.5 1394.5,-874.5 1153.5,-874.5"/>
<text text-anchor="start" x="1160.2129" y="-887.3" font-family="Arial Bold" font-size="18.00" fill="#000000">certifications</text>
<text text-anchor="start" x="1260.2191" y="-887.3" font-family="Arial" font-size="14.00" fill="#000000">    </text>
<text text-anchor="start" x="1294.4239" y="-887.3" font-family="Arial" font-size="14.00" fill="#666666">[BASE TABLE]</text>
<polygon fill="none" stroke="#000000" points="1153.5,-844.5 1153.5,-874.5 1394.5,-874.5 1394.5,-844.5 1153.5,-844.5"/>
<text text-anchor="start" x="1160.5" y="-855.9" font-family="Arial" font-size="14.00" fill="#000000">id    </text>
<text text-anchor="start" x="1205.594" y="-855.9" font-family="Arial" font-size="14.00" fill="#666666">[int]</text>
<polygon fill="none" stroke="#000000" points="1153.5,-814.5 1153.5,-844.5 1394.5,-844.5 1394.5,-814.5 1153.5,-814.5"/>
<text text-anchor="start" x="1160.5" y="-825.9" font-family="Arial" font-size="14.00" fill="#000000">date    </text>
<text text-anchor="start" x="1221.9432" y="-825.9" font-family="Arial" font-size="14.00" fill="#666666">[varchar(255)]</text>
<polygon fill="none" stroke="#000000" points="1153.5,-784.5 1153.5,-814.5 1394.5,-814.5 1394.5,-784.5 1153.5,-784.5"/>
<text text-anchor="start" x="1160.5" y="-795.9" font-family="Arial" font-size="14.00" fill="#000000">title_ja_jp    </text>
<text text-anchor="start" x="1253.8254" y="-795.9" font-family="Arial" font-size="14.00" fill="#666666">[varchar(255)]</text>
<polygon fill="none" stroke="#000000" points="1153.5,-754.5 1153.5,-784.5 1394.5,-784.5 1394.5,-754.5 1153.5,-754.5"/>
<text text-anchor="start" x="1160.5" y="-765.9" font-family="Arial" font-size="14.00" fill="#000000">title_en_us    </text>
<text text-anchor="start" x="1262.3948" y="-765.9" font-family="Arial" font-size="14.00" fill="#666666">[varchar(255)]</text>
<polygon fill="none" stroke="#000000" points="1153.5,-724.5 1153.5,-754.5 1394.5,-754.5 1394.5,-724.5 1153.5,-724.5"/>
<text text-anchor="start" x="1160.5" y="-735.9" font-family="Arial" font-size="14.00" fill="#000000">subject_ja_jp    </text>
<text text-anchor="start" x="1276.3934" y="-735.9" font-family="Arial" font-size="14.00" fill="#666666">[varchar(255)]</text>
<polygon fill="none" stroke="#000000" points="1153.5,-694.5 1153.5,-724.5 1394.5,-724.5 1394.5,-694.5 1153.5,-694.5"/>
<text text-anchor="start" x="1160.5" y="-705.9" font-family="Arial" font-size="14.00" fill="#000000">subject_en_us    </text>
<text text-anchor="start" x="1284.9628" y="-705.9" font-family="Arial" font-size="14.00" fill="#666666">[varchar(255)]</text>
<polygon fill="none" stroke="#000000" points="1153.5,-664.5 1153.5,-694.5 1394.5,-694.5 1394.5,-664.5 1153.5,-664.5"/>
<text text-anchor="start" x="1160.5" y="-675.9" font-family="Arial" font-size="14.00" fill="#000000">favicon    </text>
<text text-anchor="start" x="1239.0498" y="-675.9" font-family="Arial" font-size="14.00" fill="#666666">[text]</text>
<polygon fill="none" stroke="#000000" points="1153.5,-634.5 1153.5,-664.5 1394.5,-664.5 1394.5,-634.5 1153.5,-634.5"/>
<text text-anchor="start" x="1160.5" y="-645.9" font-family="Arial" font-size="14.00" fill="#000000">url    </text>
<text text-anchor="start" x="1210.2546" y="-645.9" font-family="Arial" font-size="14.00" fill="#666666">[text]</text>
<polygon fill="none" stroke="#000000" points="1153.5,-604.5 1153.5,-634.5 1394.5,-634.5 1394.5,-604.5 1153.5,-604.5"/>
<text text-anchor="start" x="1160.5" y="-615.9" font-family="Arial" font-size="14.00" fill="#000000">visible    </text>
<text text-anchor="start" x="1233.5898" y="-615.9" font-family="Arial" font-size="14.00" fill="#666666">[tinyint(1)]</text>
</g>
<!-- icons -->
<g id="node6" class="node">
<title>icons</title>
<polygon fill="#efefef" stroke="transparent" points="1498.5,-769.5 1498.5,-804.5 1681.5,-804.5 1681.5,-769.5 1498.5,-769.5"/>
<polygon fill="none" stroke="#000000" points="1498.5,-769.5 1498.5,-804.5 1681.5,-804.5 1681.5,-769.5 1498.5,-769.5"/>
<text text-anchor="start" x="1505.2127" y="-782.3" font-family="Arial Bold" font-size="18.00" fill="#000000">icons</text>
<text text-anchor="start" x="1547.2193" y="-782.3" font-family="Arial" font-size="14.00" fill="#000000">    </text>
<text text-anchor="start" x="1581.4241" y="-782.3" font-family="Arial" font-size="14.00" fill="#666666">[BASE TABLE]</text>
<polygon fill="none" stroke="#000000" points="1498.5,-739.5 1498.5,-769.5 1681.5,-769.5 1681.5,-739.5 1498.5,-739.5"/>
<text text-anchor="start" x="1505.5" y="-750.9" font-family="Arial" font-size="14.00" fill="#000000">id    </text>
<text text-anchor="start" x="1550.594" y="-750.9" font-family="Arial" font-size="14.00" fill="#666666">[varchar(255)]</text>
<polygon fill="none" stroke="#000000" points="1498.5,-709.5 1498.5,-739.5 1681.5,-739.5 1681.5,-709.5 1498.5,-709.5"/>
<text text-anchor="start" x="1505.5" y="-720.9" font-family="Arial" font-size="14.00" fill="#000000">data    </text>
<text text-anchor="start" x="1566.9432" y="-720.9" font-family="Arial" font-size="14.00" fill="#666666">[text]</text>
</g>
<!-- product_images -->
<g id="node7" class="node">
<title>product_images</title>
<polygon fill="#efefef" stroke="transparent" points="1785.5,-784.5 1785.5,-819.5 2054.5,-819.5 2054.5,-784.5 1785.5,-784.5"/>
<polygon fill="none" stroke="#000000" points="1785.5,-784.5 1785.5,-819.5 2054.5,-819.5 2054.5,-784.5 1785.5,-784.5"/>
<text text-anchor="start" x="1792.2008" y="-797.3" font-family="Arial Bold" font-size="18.00" fill="#000000">product_images</text>
<text text-anchor="start" x="1920.2312" y="-797.3" font-family="Arial" font-size="14.00" fill="#000000">    </text>
<text text-anchor="start" x="1954.436" y="-797.3" font-family="Arial" font-size="14.00" fill="#666666">[BASE TABLE]</text>
<polygon fill="none" stroke="#000000" points="1785.5,-754.5 1785.5,-784.5 2054.5,-784.5 2054.5,-754.5 1785.5,-754.5"/>
<text text-anchor="start" x="1792.5" y="-765.9" font-family="Arial" font-size="14.00" fill="#000000">product_id    </text>
<text text-anchor="start" x="1892.0582" y="-765.9" font-family="Arial" font-size="14.00" fill="#666666">[int]</text>
<polygon fill="none" stroke="#000000" points="1785.5,-724.5 1785.5,-754.5 2054.5,-754.5 2054.5,-724.5 1785.5,-724.5"/>
<text text-anchor="start" x="1792.5" y="-735.9" font-family="Arial" font-size="14.00" fill="#000000">row_no    </text>
<text text-anchor="start" x="1872.6024" y="-735.9" font-family="Arial" font-size="14.00" fill="#666666">[int]</text>
<polygon fill="none" stroke="#000000" points="1785.5,-694.5 1785.5,-724.5 2054.5,-724.5 2054.5,-694.5 1785.5,-694.5"/>
<text text-anchor="start" x="1792.5" y="-705.9" font-family="Arial" font-size="14.00" fill="#000000">data    </text>
<text text-anchor="start" x="1853.9432" y="-705.9" font-family="Arial" font-size="14.00" fill="#666666">[text]</text>
</g>
<!-- products -->
<g id="node8" class="node">
<title>products</title>
<polygon fill="#efefef" stroke="transparent" points="1807.5,-432.5 1807.5,-467.5 2032.5,-467.5 2032.5,-432.5 1807.5,-432.5"/>
<polygon fill="none" stroke="#000000" points="1807.5,-432.5 1807.5,-467.5 2032.5,-467.5 2032.5,-432.5 1807.5,-432.5"/>
<text text-anchor="start" x="1821.7064" y="-445.3" font-family="Arial Bold" font-size="18.00" fill="#000000">products</text>
<text text-anchor="start" x="1890.7256" y="-445.3" font-family="Arial" font-size="14.00" fill="#000000">    </text>
<text text-anchor="start" x="1924.9304" y="-445.3" font-family="Arial" font-size="14.00" fill="#666666">[BASE TABLE]</text>
<polygon fill="none" stroke="#000000" points="1807.5,-402.5 1807.5,-432.5 2032.5,-432.5 2032.5,-402.5 1807.5,-402.5"/>
<text text-anchor="start" x="1814.5" y="-413.9" font-family="Arial" font-size="14.00" fill="#000000">id    </text>
<text text-anchor="start" x="1859.594" y="-413.9" font-family="Arial" font-size="14.00" fill="#666666">[int]</text>
<polygon fill="none" stroke="#000000" points="1807.5,-372.5 1807.5,-402.5 2032.5,-402.5 2032.5,-372.5 1807.5,-372.5"/>
<text text-anchor="start" x="1814.5" y="-383.9" font-family="Arial" font-size="14.00" fill="#000000">title_ja_jp    </text>
<text text-anchor="start" x="1907.8254" y="-383.9" font-family="Arial" font-size="14.00" fill="#666666">[varchar(255)]</text>
<polygon fill="none" stroke="#000000" points="1807.5,-342.5 1807.5,-372.5 2032.5,-372.5 2032.5,-342.5 1807.5,-342.5"/>
<text text-anchor="start" x="1814.5" y="-353.9" font-family="Arial" font-size="14.00" fill="#000000">title_en_us    </text>
<text text-anchor="start" x="1916.3948" y="-353.9" font-family="Arial" font-size="14.00" fill="#666666">[varchar(255)]</text>
<polygon fill="none" stroke="#000000" points="1807.5,-312.5 1807.5,-342.5 2032.5,-342.5 2032.5,-312.5 1807.5,-312.5"/>
<text text-anchor="start" x="1814.5" y="-323.9" font-family="Arial" font-size="14.00" fill="#000000">subject_ja_jp    </text>
<text text-anchor="start" x="1930.3934" y="-323.9" font-family="Arial" font-size="14.00" fill="#666666">[varchar(255)]</text>
<polygon fill="none" stroke="#000000" points="1807.5,-282.5 1807.5,-312.5 2032.5,-312.5 2032.5,-282.5 1807.5,-282.5"/>
<text text-anchor="start" x="1814.209" y="-293.9" font-family="Arial" font-size="14.00" fill="#000000">subject_en_us    </text>
<text text-anchor="start" x="1938.6718" y="-293.9" font-family="Arial" font-size="14.00" fill="#666666">[varchar(255)]</text>
<polygon fill="none" stroke="#000000" points="1807.5,-252.5 1807.5,-282.5 2032.5,-282.5 2032.5,-252.5 1807.5,-252.5"/>
<text text-anchor="start" x="1814.5" y="-263.9" font-family="Arial" font-size="14.00" fill="#000000">body_ja_jp    </text>
<text text-anchor="start" x="1916.3962" y="-263.9" font-family="Arial" font-size="14.00" fill="#666666">[text]</text>
<polygon fill="none" stroke="#000000" points="1807.5,-222.5 1807.5,-252.5 2032.5,-252.5 2032.5,-222.5 1807.5,-222.5"/>
<text text-anchor="start" x="1814.5" y="-233.9" font-family="Arial" font-size="14.00" fill="#000000">body_en_us    </text>
<text text-anchor="start" x="1924.9656" y="-233.9" font-family="Arial" font-size="14.00" fill="#666666">[text]</text>
<polygon fill="none" stroke="#000000" points="1807.5,-192.5 1807.5,-222.5 2032.5,-222.5 2032.5,-192.5 1807.5,-192.5"/>
<text text-anchor="start" x="1814.5" y="-203.9" font-family="Arial" font-size="14.00" fill="#000000">skills    </text>
<text text-anchor="start" x="1879.0246" y="-203.9" font-family="Arial" font-size="14.00" fill="#666666">[text]</text>
<polygon fill="none" stroke="#000000" points="1807.5,-162.5 1807.5,-192.5 2032.5,-192.5 2032.5,-162.5 1807.5,-162.5"/>
<text text-anchor="start" x="1814.5" y="-173.9" font-family="Arial" font-size="14.00" fill="#000000">url_code    </text>
<text text-anchor="start" x="1902.385" y="-173.9" font-family="Arial" font-size="14.00" fill="#666666">[text]</text>
<polygon fill="none" stroke="#000000" points="1807.5,-132.5 1807.5,-162.5 2032.5,-162.5 2032.5,-132.5 1807.5,-132.5"/>
<text text-anchor="start" x="1814.5" y="-143.9" font-family="Arial" font-size="14.00" fill="#000000">url_home    </text>
<text text-anchor="start" x="1907.0456" y="-143.9" font-family="Arial" font-size="14.00" fill="#666666">[text]</text>
<polygon fill="none" stroke="#000000" points="1807.5,-102.5 1807.5,-132.5 2032.5,-132.5 2032.5,-102.5 1807.5,-102.5"/>
<text text-anchor="start" x="1814.5" y="-113.9" font-family="Arial" font-size="14.00" fill="#000000">downloads    </text>
<text text-anchor="start" x="1915.6136" y="-113.9" font-family="Arial" font-size="14.00" fill="#666666">[int]</text>
<polygon fill="none" stroke="#000000" points="1807.5,-72.5 1807.5,-102.5 2032.5,-102.5 2032.5,-72.5 1807.5,-72.5"/>
<text text-anchor="start" x="1814.5" y="-83.9" font-family="Arial" font-size="14.00" fill="#000000">pickup    </text>
<text text-anchor="start" x="1889.1592" y="-83.9" font-family="Arial" font-size="14.00" fill="#666666">[tinyint(1)]</text>
<polygon fill="none" stroke="#000000" points="1807.5,-42.5 1807.5,-72.5 2032.5,-72.5 2032.5,-42.5 1807.5,-42.5"/>
<text text-anchor="start" x="1814.5" y="-53.9" font-family="Arial" font-size="14.00" fill="#000000">visible    </text>
<text text-anchor="start" x="1887.5898" y="-53.9" font-family="Arial" font-size="14.00" fill="#666666">[tinyint(1)]</text>
</g>
<!-- product_images&#45;&gt;products -->
<g id="edge2" class="edge">
<title>product_images:product_id&#45;&gt;products:id</title>
<path fill="none" stroke="#000000" d="M1775.5414,-767.4328C1709.2155,-738.5853 1732.6459,-417.5 1807.5,-417.5"/>
<polygon fill="#000000" stroke="#000000" points="1775.7087,-767.4675 1784.5854,-773.9061 1780.6044,-768.4837 1785.5,-769.5 1785.5,-769.5 1785.5,-769.5 1780.6044,-768.4837 1786.4146,-765.0939 1775.7087,-767.4675 1775.7087,-767.4675"/>
<text text-anchor="start" x="1792.548" y="-779.5" font-family="Arial" font-size="10.00" fill="#000000">FOREIGN KEY (product_id) REFERENCES products (id)</text>
</g>
<!-- version -->
<g id="node9" class="node">
<title>version</title>
<polygon fill="#efefef" stroke="transparent" points="2158.5,-754.5 2158.5,-789.5 2357.5,-789.5 2357.5,-754.5 2158.5,-754.5"/>
<polygon fill="none" stroke="#000000" points="2158.5,-754.5 2158.5,-789.5 2357.5,-789.5 2357.5,-754.5 2158.5,-754.5"/>
<text text-anchor="start" x="2165.2135" y="-767.3" font-family="Arial Bold" font-size="18.00" fill="#000000">version</text>
<text text-anchor="start" x="2223.2185" y="-767.3" font-family="Arial" font-size="14.00" fill="#000000">    </text>
<text text-anchor="start" x="2257.4233" y="-767.3" font-family="Arial" font-size="14.00" fill="#666666">[BASE TABLE]</text>
<polygon fill="none" stroke="#000000" points="2158.5,-724.5 2158.5,-754.5 2357.5,-754.5 2357.5,-724.5 2158.5,-724.5"/>
<text text-anchor="start" x="2165.0463" y="-735.9" font-family="Arial" font-size="14.00" fill="#000000">last_update    </text>
<text text-anchor="start" x="2271.6171" y="-735.9" font-family="Arial" font-size="14.00" fill="#666666">[varchar(20)]</text>
</g>
</g>
</svg>
