<?xml version="1.0" encoding="UTF-8" standalone="no"?>
<!DOCTYPE svg PUBLIC "-//W3C//DTD SVG 1.1//EN"
 "http://www.w3.org/Graphics/SVG/1.1/DTD/svg11.dtd">
<!-- Generated by graphviz version 12.1.2 (20240928.0832)
 -->
<!-- Title: database Pages: 1 -->
<svg width="2604pt" height="1058pt"
 viewBox="0.00 0.00 2604.35 1058.00" xmlns="http://www.w3.org/2000/svg" xmlns:xlink="http://www.w3.org/1999/xlink">
<g id="graph0" class="graph" transform="scale(1 1) rotate(0) translate(4 1054)">
<title>database</title>
<polygon fill="white" stroke="none" points="-4,4 -4,-1054 2600.35,-1054 2600.35,4 -4,4"/>
<!-- articles_metadata -->
<g id="node1" class="node">
<title>articles_metadata</title>
<polygon fill="#efefef" stroke="none" points="43.2,-971.2 43.2,-1006.8 307.62,-1006.8 307.62,-971.2 43.2,-971.2"/>
<polygon fill="none" stroke="black" points="43.2,-971.2 43.2,-1006.8 307.62,-1006.8 307.62,-971.2 43.2,-971.2"/>
<text text-anchor="start" x="50.2" y="-984.6" font-family="Arial Bold" font-size="18.00">articles_metadata</text>
<text text-anchor="start" x="176.13" y="-984.6" font-family="Arial" font-size="14.00">    </text>
<text text-anchor="start" x="207.25" y="-984.6" font-family="Arial" font-size="14.00" fill="#666666">[BASE TABLE]</text>
<polygon fill="none" stroke="black" points="43.2,-940.4 43.2,-971.2 307.62,-971.2 307.62,-940.4 43.2,-940.4"/>
<text text-anchor="start" x="50.2" y="-952.6" font-family="Arial" font-size="14.00">id </text>
<text text-anchor="start" x="64.99" y="-952.6" font-family="Arial" font-size="14.00" fill="#666666">[char(20)]</text>
<polygon fill="none" stroke="black" points="43.2,-909.6 43.2,-940.4 307.62,-940.4 307.62,-909.6 43.2,-909.6"/>
<text text-anchor="start" x="50.2" y="-921.8" font-family="Arial" font-size="14.00">title_ja_jp </text>
<text text-anchor="start" x="113.24" y="-921.8" font-family="Arial" font-size="14.00" fill="#666666">[varchar(255)]</text>
<polygon fill="none" stroke="black" points="43.2,-878.8 43.2,-909.6 307.62,-909.6 307.62,-878.8 43.2,-878.8"/>
<text text-anchor="start" x="50.2" y="-891" font-family="Arial" font-size="14.00">title_en_us </text>
<text text-anchor="start" x="121.81" y="-891" font-family="Arial" font-size="14.00" fill="#666666">[varchar(255)]</text>
<polygon fill="none" stroke="black" points="43.2,-848 43.2,-878.8 307.62,-878.8 307.62,-848 43.2,-848"/>
<text text-anchor="start" x="50.2" y="-860.2" font-family="Arial" font-size="14.00">body_ja_jp </text>
<text text-anchor="start" x="121.81" y="-860.2" font-family="Arial" font-size="14.00" fill="#666666">[text]</text>
<polygon fill="none" stroke="black" points="43.2,-817.2 43.2,-848 307.62,-848 307.62,-817.2 43.2,-817.2"/>
<text text-anchor="start" x="50.2" y="-829.4" font-family="Arial" font-size="14.00">body_en_us </text>
<text text-anchor="start" x="130.38" y="-829.4" font-family="Arial" font-size="14.00" fill="#666666">[text]</text>
<polygon fill="none" stroke="black" points="43.2,-786.4 43.2,-817.2 307.62,-817.2 307.62,-786.4 43.2,-786.4"/>
<text text-anchor="start" x="50.2" y="-798.6" font-family="Arial" font-size="14.00">tags </text>
<text text-anchor="start" x="80.55" y="-798.6" font-family="Arial" font-size="14.00" fill="#666666">[varchar(255)]</text>
<polygon fill="none" stroke="black" points="43.2,-755.6 43.2,-786.4 307.62,-786.4 307.62,-755.6 43.2,-755.6"/>
<text text-anchor="start" x="50.2" y="-767.8" font-family="Arial" font-size="14.00">url </text>
<text text-anchor="start" x="69.65" y="-767.8" font-family="Arial" font-size="14.00" fill="#666666">[text]</text>
<polygon fill="none" stroke="black" points="43.2,-724.8 43.2,-755.6 307.62,-755.6 307.62,-724.8 43.2,-724.8"/>
<text text-anchor="start" x="50.2" y="-737" font-family="Arial" font-size="14.00">likes_count </text>
<text text-anchor="start" x="124.13" y="-737" font-family="Arial" font-size="14.00" fill="#666666">[int]</text>
<polygon fill="none" stroke="black" points="43.2,-694 43.2,-724.8 307.62,-724.8 307.62,-694 43.2,-694"/>
<text text-anchor="start" x="50.2" y="-706.2" font-family="Arial" font-size="14.00">stocks_count </text>
<text text-anchor="start" x="135.8" y="-706.2" font-family="Arial" font-size="14.00" fill="#666666">[int]</text>
<polygon fill="none" stroke="black" points="43.2,-663.2 43.2,-694 307.62,-694 307.62,-663.2 43.2,-663.2"/>
<text text-anchor="start" x="50.2" y="-675.4" font-family="Arial" font-size="14.00">comments_count </text>
<text text-anchor="start" x="160.7" y="-675.4" font-family="Arial" font-size="14.00" fill="#666666">[int]</text>
<polygon fill="none" stroke="black" points="43.2,-632.4 43.2,-663.2 307.62,-663.2 307.62,-632.4 43.2,-632.4"/>
<text text-anchor="start" x="50.2" y="-644.6" font-family="Arial" font-size="14.00">created_at </text>
<text text-anchor="start" x="120.25" y="-644.6" font-family="Arial" font-size="14.00" fill="#666666">[timestamp]</text>
<polygon fill="none" stroke="black" points="43.2,-601.6 43.2,-632.4 307.62,-632.4 307.62,-601.6 43.2,-601.6"/>
<text text-anchor="start" x="50.2" y="-613.8" font-family="Arial" font-size="14.00">updated_at </text>
<text text-anchor="start" x="124.16" y="-613.8" font-family="Arial" font-size="14.00" fill="#666666">[timestamp]</text>
</g>
<!-- articles_pickup -->
<g id="node2" class="node">
<title>articles_pickup</title>
<polygon fill="#efefef" stroke="none" points="412.18,-817.2 412.18,-852.8 660.63,-852.8 660.63,-817.2 412.18,-817.2"/>
<polygon fill="none" stroke="black" points="412.18,-817.2 412.18,-852.8 660.63,-852.8 660.63,-817.2 412.18,-817.2"/>
<text text-anchor="start" x="419.18" y="-830.6" font-family="Arial Bold" font-size="18.00">articles_pickup</text>
<text text-anchor="start" x="529.14" y="-830.6" font-family="Arial" font-size="14.00">    </text>
<text text-anchor="start" x="560.26" y="-830.6" font-family="Arial" font-size="14.00" fill="#666666">[BASE TABLE]</text>
<polygon fill="none" stroke="black" points="412.18,-786.4 412.18,-817.2 660.63,-817.2 660.63,-786.4 412.18,-786.4"/>
<text text-anchor="start" x="419.18" y="-798.6" font-family="Arial" font-size="14.00">id </text>
<text text-anchor="start" x="433.97" y="-798.6" font-family="Arial" font-size="14.00" fill="#666666">[char(20)]</text>
<polygon fill="none" stroke="black" points="412.18,-755.6 412.18,-786.4 660.63,-786.4 660.63,-755.6 412.18,-755.6"/>
<text text-anchor="start" x="419.18" y="-767.8" font-family="Arial" font-size="14.00">data </text>
<text text-anchor="start" x="450.32" y="-767.8" font-family="Arial" font-size="14.00" fill="#666666">[text]</text>
</g>
<!-- career_details -->
<g id="node3" class="node">
<title>career_details</title>
<polygon fill="#efefef" stroke="none" points="765.2,-863.4 765.2,-899 1003.62,-899 1003.62,-863.4 765.2,-863.4"/>
<polygon fill="none" stroke="black" points="765.2,-863.4 765.2,-899 1003.62,-899 1003.62,-863.4 765.2,-863.4"/>
<text text-anchor="start" x="772.2" y="-876.8" font-family="Arial Bold" font-size="18.00">career_details</text>
<text text-anchor="start" x="872.13" y="-876.8" font-family="Arial" font-size="14.00">    </text>
<text text-anchor="start" x="903.25" y="-876.8" font-family="Arial" font-size="14.00" fill="#666666">[BASE TABLE]</text>
<polygon fill="none" stroke="black" points="765.2,-832.6 765.2,-863.4 1003.62,-863.4 1003.62,-832.6 765.2,-832.6"/>
<text text-anchor="start" x="772.2" y="-844.8" font-family="Arial" font-size="14.00">career_id </text>
<text text-anchor="start" x="834.45" y="-844.8" font-family="Arial" font-size="14.00" fill="#666666">[int]</text>
<polygon fill="none" stroke="black" points="765.2,-801.8 765.2,-832.6 1003.62,-832.6 1003.62,-801.8 765.2,-801.8"/>
<text text-anchor="start" x="772.2" y="-814" font-family="Arial" font-size="14.00">row_no </text>
<text text-anchor="start" x="822.01" y="-814" font-family="Arial" font-size="14.00" fill="#666666">[int]</text>
<polygon fill="none" stroke="black" points="765.2,-771 765.2,-801.8 1003.62,-801.8 1003.62,-771 765.2,-771"/>
<text text-anchor="start" x="772.2" y="-783.2" font-family="Arial" font-size="14.00">subject_ja_jp </text>
<text text-anchor="start" x="857.81" y="-783.2" font-family="Arial" font-size="14.00" fill="#666666">[varchar(255)]</text>
<polygon fill="none" stroke="black" points="765.2,-740.2 765.2,-771 1003.62,-771 1003.62,-740.2 765.2,-740.2"/>
<text text-anchor="start" x="772.2" y="-752.4" font-family="Arial" font-size="14.00">subject_en_us </text>
<text text-anchor="start" x="866.38" y="-752.4" font-family="Arial" font-size="14.00" fill="#666666">[varchar(255)]</text>
<polygon fill="none" stroke="black" points="765.2,-709.4 765.2,-740.2 1003.62,-740.2 1003.62,-709.4 765.2,-709.4"/>
<text text-anchor="start" x="772.2" y="-721.6" font-family="Arial" font-size="14.00">skills </text>
<text text-anchor="start" x="806.42" y="-721.6" font-family="Arial" font-size="14.00" fill="#666666">[text]</text>
</g>
<!-- careers -->
<g id="node4" class="node">
<title>careers</title>
<polygon fill="#efefef" stroke="none" points="789.69,-366.6 789.69,-402.2 979.13,-402.2 979.13,-366.6 789.69,-366.6"/>
<polygon fill="none" stroke="black" points="789.69,-366.6 789.69,-402.2 979.13,-402.2 979.13,-366.6 789.69,-366.6"/>
<text text-anchor="start" x="796.69" y="-380" font-family="Arial Bold" font-size="18.00">careers</text>
<text text-anchor="start" x="847.64" y="-380" font-family="Arial" font-size="14.00">    </text>
<text text-anchor="start" x="878.76" y="-380" font-family="Arial" font-size="14.00" fill="#666666">[BASE TABLE]</text>
<polygon fill="none" stroke="black" points="789.69,-335.8 789.69,-366.6 979.13,-366.6 979.13,-335.8 789.69,-335.8"/>
<text text-anchor="start" x="796.69" y="-348" font-family="Arial" font-size="14.00">id </text>
<text text-anchor="start" x="811.48" y="-348" font-family="Arial" font-size="14.00" fill="#666666">[int]</text>
<polygon fill="none" stroke="black" points="789.69,-305 789.69,-335.8 979.13,-335.8 979.13,-305 789.69,-305"/>
<text text-anchor="start" x="796.69" y="-317.2" font-family="Arial" font-size="14.00">date </text>
<text text-anchor="start" x="827.83" y="-317.2" font-family="Arial" font-size="14.00" fill="#666666">[varchar(255)]</text>
<polygon fill="none" stroke="black" points="789.69,-274.2 789.69,-305 979.13,-305 979.13,-274.2 789.69,-274.2"/>
<text text-anchor="start" x="796.69" y="-286.4" font-family="Arial" font-size="14.00">place </text>
<text text-anchor="start" x="834.05" y="-286.4" font-family="Arial" font-size="14.00" fill="#666666">[varchar(255)]</text>
<polygon fill="none" stroke="black" points="789.69,-243.4 789.69,-274.2 979.13,-274.2 979.13,-243.4 789.69,-243.4"/>
<text text-anchor="start" x="796.69" y="-255.6" font-family="Arial" font-size="14.00">title_ja_jp </text>
<text text-anchor="start" x="859.73" y="-255.6" font-family="Arial" font-size="14.00" fill="#666666">[varchar(255)]</text>
<polygon fill="none" stroke="black" points="789.69,-212.6 789.69,-243.4 979.13,-243.4 979.13,-212.6 789.69,-212.6"/>
<text text-anchor="start" x="796.69" y="-224.8" font-family="Arial" font-size="14.00">title_en_us </text>
<text text-anchor="start" x="868.3" y="-224.8" font-family="Arial" font-size="14.00" fill="#666666">[varchar(255)]</text>
<polygon fill="none" stroke="black" points="789.69,-181.8 789.69,-212.6 979.13,-212.6 979.13,-181.8 789.69,-181.8"/>
<text text-anchor="start" x="796.69" y="-194" font-family="Arial" font-size="14.00">favicon </text>
<text text-anchor="start" x="844.94" y="-194" font-family="Arial" font-size="14.00" fill="#666666">[text]</text>
<polygon fill="none" stroke="black" points="789.69,-151 789.69,-181.8 979.13,-181.8 979.13,-151 789.69,-151"/>
<text text-anchor="start" x="796.69" y="-163.2" font-family="Arial" font-size="14.00">url </text>
<text text-anchor="start" x="816.14" y="-163.2" font-family="Arial" font-size="14.00" fill="#666666">[text]</text>
<polygon fill="none" stroke="black" points="789.69,-120.2 789.69,-151 979.13,-151 979.13,-120.2 789.69,-120.2"/>
<text text-anchor="start" x="796.69" y="-132.4" font-family="Arial" font-size="14.00">visible </text>
<text text-anchor="start" x="839.48" y="-132.4" font-family="Arial" font-size="14.00" fill="#666666">[tinyint(1)]</text>
</g>
<!-- career_details&#45;&gt;careers -->
<g id="edge1" class="edge">
<title>career_details:career_id&#45;&gt;careers:id</title>
<path fill="none" stroke="black" d="M1013.52,-843.08C1056.91,-791.49 1032.16,-351.2 980.13,-351.2"/>
<polygon fill="black" stroke="black" points="1013.67,-843 1002.74,-843.9 1009,-845.58 1005.21,-847.68 1005.21,-847.68 1005.21,-847.68 1009,-845.58 1007.09,-851.78 1013.67,-843"/>
<text text-anchor="start" x="1011.62" y="-858" font-family="Arial" font-size="10.00">FOREIGN KEY (career_id) REFERENCES careers (id)</text>
</g>
<!-- certifications -->
<g id="node5" class="node">
<title>certifications</title>
<polygon fill="#efefef" stroke="none" points="1108.19,-925 1108.19,-960.6 1340.63,-960.6 1340.63,-925 1108.19,-925"/>
<polygon fill="none" stroke="black" points="1108.19,-925 1108.19,-960.6 1340.63,-960.6 1340.63,-925 1108.19,-925"/>
<text text-anchor="start" x="1115.19" y="-938.4" font-family="Arial Bold" font-size="18.00">certifications</text>
<text text-anchor="start" x="1209.14" y="-938.4" font-family="Arial" font-size="14.00">    </text>
<text text-anchor="start" x="1240.26" y="-938.4" font-family="Arial" font-size="14.00" fill="#666666">[BASE TABLE]</text>
<polygon fill="none" stroke="black" points="1108.19,-894.2 1108.19,-925 1340.63,-925 1340.63,-894.2 1108.19,-894.2"/>
<text text-anchor="start" x="1115.19" y="-906.4" font-family="Arial" font-size="14.00">id </text>
<text text-anchor="start" x="1129.97" y="-906.4" font-family="Arial" font-size="14.00" fill="#666666">[int]</text>
<polygon fill="none" stroke="black" points="1108.19,-863.4 1108.19,-894.2 1340.63,-894.2 1340.63,-863.4 1108.19,-863.4"/>
<text text-anchor="start" x="1115.19" y="-875.6" font-family="Arial" font-size="14.00">date </text>
<text text-anchor="start" x="1146.33" y="-875.6" font-family="Arial" font-size="14.00" fill="#666666">[varchar(255)]</text>
<polygon fill="none" stroke="black" points="1108.19,-832.6 1108.19,-863.4 1340.63,-863.4 1340.63,-832.6 1108.19,-832.6"/>
<text text-anchor="start" x="1115.19" y="-844.8" font-family="Arial" font-size="14.00">title_ja_jp </text>
<text text-anchor="start" x="1178.23" y="-844.8" font-family="Arial" font-size="14.00" fill="#666666">[varchar(255)]</text>
<polygon fill="none" stroke="black" points="1108.19,-801.8 1108.19,-832.6 1340.63,-832.6 1340.63,-801.8 1108.19,-801.8"/>
<text text-anchor="start" x="1115.19" y="-814" font-family="Arial" font-size="14.00">title_en_us </text>
<text text-anchor="start" x="1186.79" y="-814" font-family="Arial" font-size="14.00" fill="#666666">[varchar(255)]</text>
<polygon fill="none" stroke="black" points="1108.19,-771 1108.19,-801.8 1340.63,-801.8 1340.63,-771 1108.19,-771"/>
<text text-anchor="start" x="1115.19" y="-783.2" font-family="Arial" font-size="14.00">subject_ja_jp </text>
<text text-anchor="start" x="1200.8" y="-783.2" font-family="Arial" font-size="14.00" fill="#666666">[varchar(255)]</text>
<polygon fill="none" stroke="black" points="1108.19,-740.2 1108.19,-771 1340.63,-771 1340.63,-740.2 1108.19,-740.2"/>
<text text-anchor="start" x="1115.19" y="-752.4" font-family="Arial" font-size="14.00">subject_en_us </text>
<text text-anchor="start" x="1209.37" y="-752.4" font-family="Arial" font-size="14.00" fill="#666666">[varchar(255)]</text>
<polygon fill="none" stroke="black" points="1108.19,-709.4 1108.19,-740.2 1340.63,-740.2 1340.63,-709.4 1108.19,-709.4"/>
<text text-anchor="start" x="1115.19" y="-721.6" font-family="Arial" font-size="14.00">favicon </text>
<text text-anchor="start" x="1163.44" y="-721.6" font-family="Arial" font-size="14.00" fill="#666666">[text]</text>
<polygon fill="none" stroke="black" points="1108.19,-678.6 1108.19,-709.4 1340.63,-709.4 1340.63,-678.6 1108.19,-678.6"/>
<text text-anchor="start" x="1115.19" y="-690.8" font-family="Arial" font-size="14.00">url </text>
<text text-anchor="start" x="1134.64" y="-690.8" font-family="Arial" font-size="14.00" fill="#666666">[text]</text>
<polygon fill="none" stroke="black" points="1108.19,-647.8 1108.19,-678.6 1340.63,-678.6 1340.63,-647.8 1108.19,-647.8"/>
<text text-anchor="start" x="1115.19" y="-660" font-family="Arial" font-size="14.00">visible </text>
<text text-anchor="start" x="1157.98" y="-660" font-family="Arial" font-size="14.00" fill="#666666">[tinyint(1)]</text>
</g>
<!-- icons -->
<g id="node6" class="node">
<title>icons</title>
<polygon fill="#efefef" stroke="none" points="1445.17,-817.2 1445.17,-852.8 1621.65,-852.8 1621.65,-817.2 1445.17,-817.2"/>
<polygon fill="none" stroke="black" points="1445.17,-817.2 1445.17,-852.8 1621.65,-852.8 1621.65,-817.2 1445.17,-817.2"/>
<text text-anchor="start" x="1452.17" y="-830.6" font-family="Arial Bold" font-size="18.00">icons</text>
<text text-anchor="start" x="1490.16" y="-830.6" font-family="Arial" font-size="14.00">    </text>
<text text-anchor="start" x="1521.28" y="-830.6" font-family="Arial" font-size="14.00" fill="#666666">[BASE TABLE]</text>
<polygon fill="none" stroke="black" points="1445.17,-786.4 1445.17,-817.2 1621.65,-817.2 1621.65,-786.4 1445.17,-786.4"/>
<text text-anchor="start" x="1452.17" y="-798.6" font-family="Arial" font-size="14.00">id </text>
<text text-anchor="start" x="1466.95" y="-798.6" font-family="Arial" font-size="14.00" fill="#666666">[varchar(255)]</text>
<polygon fill="none" stroke="black" points="1445.17,-755.6 1445.17,-786.4 1621.65,-786.4 1621.65,-755.6 1445.17,-755.6"/>
<text text-anchor="start" x="1452.17" y="-767.8" font-family="Arial" font-size="14.00">data </text>
<text text-anchor="start" x="1483.3" y="-767.8" font-family="Arial" font-size="14.00" fill="#666666">[text]</text>
</g>
<!-- product_images -->
<g id="node7" class="node">
<title>product_images</title>
<polygon fill="#efefef" stroke="none" points="1725.68,-832.6 1725.68,-868.2 1979.14,-868.2 1979.14,-832.6 1725.68,-832.6"/>
<polygon fill="none" stroke="black" points="1725.68,-832.6 1725.68,-868.2 1979.14,-868.2 1979.14,-832.6 1725.68,-832.6"/>
<text text-anchor="start" x="1732.68" y="-846" font-family="Arial Bold" font-size="18.00">product_images</text>
<text text-anchor="start" x="1847.65" y="-846" font-family="Arial" font-size="14.00">    </text>
<text text-anchor="start" x="1878.77" y="-846" font-family="Arial" font-size="14.00" fill="#666666">[BASE TABLE]</text>
<polygon fill="none" stroke="black" points="1725.68,-801.8 1725.68,-832.6 1979.14,-832.6 1979.14,-801.8 1725.68,-801.8"/>
<text text-anchor="start" x="1732.68" y="-814" font-family="Arial" font-size="14.00">product_id </text>
<text text-anchor="start" x="1801.95" y="-814" font-family="Arial" font-size="14.00" fill="#666666">[int]</text>
<polygon fill="none" stroke="black" points="1725.68,-771 1725.68,-801.8 1979.14,-801.8 1979.14,-771 1725.68,-771"/>
<text text-anchor="start" x="1732.68" y="-783.2" font-family="Arial" font-size="14.00">row_no </text>
<text text-anchor="start" x="1782.49" y="-783.2" font-family="Arial" font-size="14.00" fill="#666666">[int]</text>
<polygon fill="none" stroke="black" points="1725.68,-740.2 1725.68,-771 1979.14,-771 1979.14,-740.2 1725.68,-740.2"/>
<text text-anchor="start" x="1732.68" y="-752.4" font-family="Arial" font-size="14.00">data </text>
<text text-anchor="start" x="1763.82" y="-752.4" font-family="Arial" font-size="14.00" fill="#666666">[text]</text>
</g>
<!-- products -->
<g id="node8" class="node">
<title>products</title>
<polygon fill="#efefef" stroke="none" points="1752.17,-443.6 1752.17,-479.2 1952.65,-479.2 1952.65,-443.6 1752.17,-443.6"/>
<polygon fill="none" stroke="black" points="1752.17,-443.6 1752.17,-479.2 1952.65,-479.2 1952.65,-443.6 1752.17,-443.6"/>
<text text-anchor="start" x="1759.17" y="-457" font-family="Arial Bold" font-size="18.00">products</text>
<text text-anchor="start" x="1821.16" y="-457" font-family="Arial" font-size="14.00">    </text>
<text text-anchor="start" x="1852.28" y="-457" font-family="Arial" font-size="14.00" fill="#666666">[BASE TABLE]</text>
<polygon fill="none" stroke="black" points="1752.17,-412.8 1752.17,-443.6 1952.65,-443.6 1952.65,-412.8 1752.17,-412.8"/>
<text text-anchor="start" x="1759.17" y="-425" font-family="Arial" font-size="14.00">id </text>
<text text-anchor="start" x="1773.96" y="-425" font-family="Arial" font-size="14.00" fill="#666666">[int]</text>
<polygon fill="none" stroke="black" points="1752.17,-382 1752.17,-412.8 1952.65,-412.8 1952.65,-382 1752.17,-382"/>
<text text-anchor="start" x="1759.17" y="-394.2" font-family="Arial" font-size="14.00">title_ja_jp </text>
<text text-anchor="start" x="1822.21" y="-394.2" font-family="Arial" font-size="14.00" fill="#666666">[varchar(255)]</text>
<polygon fill="none" stroke="black" points="1752.17,-351.2 1752.17,-382 1952.65,-382 1952.65,-351.2 1752.17,-351.2"/>
<text text-anchor="start" x="1759.17" y="-363.4" font-family="Arial" font-size="14.00">title_en_us </text>
<text text-anchor="start" x="1830.78" y="-363.4" font-family="Arial" font-size="14.00" fill="#666666">[varchar(255)]</text>
<polygon fill="none" stroke="black" points="1752.17,-320.4 1752.17,-351.2 1952.65,-351.2 1952.65,-320.4 1752.17,-320.4"/>
<text text-anchor="start" x="1759.17" y="-332.6" font-family="Arial" font-size="14.00">subject_ja_jp </text>
<text text-anchor="start" x="1844.78" y="-332.6" font-family="Arial" font-size="14.00" fill="#666666">[varchar(255)]</text>
<polygon fill="none" stroke="black" points="1752.17,-289.6 1752.17,-320.4 1952.65,-320.4 1952.65,-289.6 1752.17,-289.6"/>
<text text-anchor="start" x="1759.17" y="-301.8" font-family="Arial" font-size="14.00">subject_en_us </text>
<text text-anchor="start" x="1853.35" y="-301.8" font-family="Arial" font-size="14.00" fill="#666666">[varchar(255)]</text>
<polygon fill="none" stroke="black" points="1752.17,-258.8 1752.17,-289.6 1952.65,-289.6 1952.65,-258.8 1752.17,-258.8"/>
<text text-anchor="start" x="1759.17" y="-271" font-family="Arial" font-size="14.00">body_ja_jp </text>
<text text-anchor="start" x="1830.78" y="-271" font-family="Arial" font-size="14.00" fill="#666666">[text]</text>
<polygon fill="none" stroke="black" points="1752.17,-228 1752.17,-258.8 1952.65,-258.8 1952.65,-228 1752.17,-228"/>
<text text-anchor="start" x="1759.17" y="-240.2" font-family="Arial" font-size="14.00">body_en_us </text>
<text text-anchor="start" x="1839.35" y="-240.2" font-family="Arial" font-size="14.00" fill="#666666">[text]</text>
<polygon fill="none" stroke="black" points="1752.17,-197.2 1752.17,-228 1952.65,-228 1952.65,-197.2 1752.17,-197.2"/>
<text text-anchor="start" x="1759.17" y="-209.4" font-family="Arial" font-size="14.00">skills </text>
<text text-anchor="start" x="1793.39" y="-209.4" font-family="Arial" font-size="14.00" fill="#666666">[text]</text>
<polygon fill="none" stroke="black" points="1752.17,-166.4 1752.17,-197.2 1952.65,-197.2 1952.65,-166.4 1752.17,-166.4"/>
<text text-anchor="start" x="1759.17" y="-178.6" font-family="Arial" font-size="14.00">url_code </text>
<text text-anchor="start" x="1816.76" y="-178.6" font-family="Arial" font-size="14.00" fill="#666666">[text]</text>
<polygon fill="none" stroke="black" points="1752.17,-135.6 1752.17,-166.4 1952.65,-166.4 1952.65,-135.6 1752.17,-135.6"/>
<text text-anchor="start" x="1759.17" y="-147.8" font-family="Arial" font-size="14.00">url_home </text>
<text text-anchor="start" x="1821.43" y="-147.8" font-family="Arial" font-size="14.00" fill="#666666">[text]</text>
<polygon fill="none" stroke="black" points="1752.17,-104.8 1752.17,-135.6 1952.65,-135.6 1952.65,-104.8 1752.17,-104.8"/>
<text text-anchor="start" x="1759.17" y="-117" font-family="Arial" font-size="14.00">downloads </text>
<text text-anchor="start" x="1830" y="-117" font-family="Arial" font-size="14.00" fill="#666666">[int]</text>
<polygon fill="none" stroke="black" points="1752.17,-74 1752.17,-104.8 1952.65,-104.8 1952.65,-74 1752.17,-74"/>
<text text-anchor="start" x="1759.17" y="-86.2" font-family="Arial" font-size="14.00">pickup </text>
<text text-anchor="start" x="1803.53" y="-86.2" font-family="Arial" font-size="14.00" fill="#666666">[tinyint(1)]</text>
<polygon fill="none" stroke="black" points="1752.17,-43.2 1752.17,-74 1952.65,-74 1952.65,-43.2 1752.17,-43.2"/>
<text text-anchor="start" x="1759.17" y="-55.4" font-family="Arial" font-size="14.00">visible </text>
<text text-anchor="start" x="1801.96" y="-55.4" font-family="Arial" font-size="14.00" fill="#666666">[tinyint(1)]</text>
</g>
<!-- product_images&#45;&gt;products -->
<g id="edge2" class="edge">
<title>product_images:product_id&#45;&gt;products:id</title>
<path fill="none" stroke="black" d="M1988.46,-811.4C2019.54,-763.01 1993.84,-428.2 1953.65,-428.2"/>
<polygon fill="black" stroke="black" points="1988.62,-811.29 1977.84,-813.32 1984.24,-814.34 1980.69,-816.82 1980.69,-816.82 1980.69,-816.82 1984.24,-814.34 1982.99,-820.7 1988.62,-811.29"/>
<text text-anchor="start" x="1853.16" y="-801.2" font-family="Arial" font-size="10.00">FOREIGN KEY (product_id) REFERENCES products (id)</text>
</g>
<!-- sns -->
<g id="node9" class="node">
<title>sns</title>
<polygon fill="#efefef" stroke="none" points="2084.03,-878.8 2084.03,-914.4 2256.78,-914.4 2256.78,-878.8 2084.03,-878.8"/>
<polygon fill="none" stroke="black" points="2084.03,-878.8 2084.03,-914.4 2256.78,-914.4 2256.78,-878.8 2084.03,-878.8"/>
<text text-anchor="start" x="2096.66" y="-892.2" font-family="Arial Bold" font-size="18.00">sns</text>
<text text-anchor="start" x="2119.67" y="-892.2" font-family="Arial" font-size="14.00">    </text>
<text text-anchor="start" x="2150.79" y="-892.2" font-family="Arial" font-size="14.00" fill="#666666">[BASE TABLE]</text>
<polygon fill="none" stroke="black" points="2084.03,-848 2084.03,-878.8 2256.78,-878.8 2256.78,-848 2084.03,-848"/>
<text text-anchor="start" x="2091.03" y="-860.2" font-family="Arial" font-size="14.00">id </text>
<text text-anchor="start" x="2105.82" y="-860.2" font-family="Arial" font-size="14.00" fill="#666666">[int]</text>
<polygon fill="none" stroke="black" points="2084.03,-817.2 2084.03,-848 2256.78,-848 2256.78,-817.2 2084.03,-817.2"/>
<text text-anchor="start" x="2091.03" y="-829.4" font-family="Arial" font-size="14.00">title_ja_jp </text>
<text text-anchor="start" x="2154.07" y="-829.4" font-family="Arial" font-size="14.00" fill="#666666">[varchar(255)]</text>
<polygon fill="none" stroke="black" points="2084.03,-786.4 2084.03,-817.2 2256.78,-817.2 2256.78,-786.4 2084.03,-786.4"/>
<text text-anchor="start" x="2091.03" y="-798.6" font-family="Arial" font-size="14.00">title_en_us </text>
<text text-anchor="start" x="2162.64" y="-798.6" font-family="Arial" font-size="14.00" fill="#666666">[varchar(255)]</text>
<polygon fill="none" stroke="black" points="2084.03,-755.6 2084.03,-786.4 2256.78,-786.4 2256.78,-755.6 2084.03,-755.6"/>
<text text-anchor="start" x="2091.03" y="-767.8" font-family="Arial" font-size="14.00">favicon </text>
<text text-anchor="start" x="2139.28" y="-767.8" font-family="Arial" font-size="14.00" fill="#666666">[text]</text>
<polygon fill="none" stroke="black" points="2084.03,-724.8 2084.03,-755.6 2256.78,-755.6 2256.78,-724.8 2084.03,-724.8"/>
<text text-anchor="start" x="2091.03" y="-737" font-family="Arial" font-size="14.00">url </text>
<text text-anchor="start" x="2110.48" y="-737" font-family="Arial" font-size="14.00" fill="#666666">[text]</text>
<polygon fill="none" stroke="black" points="2084.03,-694 2084.03,-724.8 2256.78,-724.8 2256.78,-694 2084.03,-694"/>
<text text-anchor="start" x="2091.03" y="-706.2" font-family="Arial" font-size="14.00">visible </text>
<text text-anchor="start" x="2133.83" y="-706.2" font-family="Arial" font-size="14.00" fill="#666666">[tinyint(1)]</text>
</g>
<!-- version -->
<g id="node10" class="node">
<title>version</title>
<polygon fill="#efefef" stroke="none" points="2361.67,-801.8 2361.67,-837.4 2553.15,-837.4 2553.15,-801.8 2361.67,-801.8"/>
<polygon fill="none" stroke="black" points="2361.67,-801.8 2361.67,-837.4 2553.15,-837.4 2553.15,-801.8 2361.67,-801.8"/>
<text text-anchor="start" x="2368.67" y="-815.2" font-family="Arial Bold" font-size="18.00">version</text>
<text text-anchor="start" x="2421.66" y="-815.2" font-family="Arial" font-size="14.00">    </text>
<text text-anchor="start" x="2452.78" y="-815.2" font-family="Arial" font-size="14.00" fill="#666666">[BASE TABLE]</text>
<polygon fill="none" stroke="black" points="2361.67,-771 2361.67,-801.8 2553.15,-801.8 2553.15,-771 2361.67,-771"/>
<text text-anchor="start" x="2368.67" y="-783.2" font-family="Arial" font-size="14.00">last_update </text>
<text text-anchor="start" x="2444.95" y="-783.2" font-family="Arial" font-size="14.00" fill="#666666">[varchar(20)]</text>
</g>
</g>
</svg>
