<?xml version="1.0" encoding="UTF-8" standalone="no"?>
<!DOCTYPE svg PUBLIC "-//W3C//DTD SVG 1.1//EN"
 "http://www.w3.org/Graphics/SVG/1.1/DTD/svg11.dtd">
<!-- Generated by graphviz version 12.1.2 (20240928.0832)
 -->
<!-- Title: database Pages: 1 -->
<svg width="1007pt" height="500pt"
 viewBox="0.00 0.00 1007.35 499.60" xmlns="http://www.w3.org/2000/svg" xmlns:xlink="http://www.w3.org/1999/xlink">
<g id="graph0" class="graph" transform="scale(1 1) rotate(0) translate(4 495.6)">
<title>database</title>
<polygon fill="white" stroke="none" points="-4,4 -4,-495.6 1003.35,-495.6 1003.35,4 -4,4"/>
<!-- articles_metadata -->
<g id="node1" class="node">
<title>articles_metadata</title>
<polygon fill="#efefef" stroke="none" points="43.2,-412.8 43.2,-448.4 307.62,-448.4 307.62,-412.8 43.2,-412.8"/>
<polygon fill="none" stroke="black" points="43.2,-412.8 43.2,-448.4 307.62,-448.4 307.62,-412.8 43.2,-412.8"/>
<text text-anchor="start" x="50.2" y="-426.2" font-family="Arial Bold" font-size="18.00">articles_metadata</text>
<text text-anchor="start" x="176.13" y="-426.2" font-family="Arial" font-size="14.00">    </text>
<text text-anchor="start" x="207.25" y="-426.2" font-family="Arial" font-size="14.00" fill="#666666">[BASE TABLE]</text>
<polygon fill="none" stroke="black" points="43.2,-382 43.2,-412.8 307.62,-412.8 307.62,-382 43.2,-382"/>
<text text-anchor="start" x="50.2" y="-394.2" font-family="Arial" font-size="14.00">id </text>
<text text-anchor="start" x="64.99" y="-394.2" font-family="Arial" font-size="14.00" fill="#666666">[char(20)]</text>
<polygon fill="none" stroke="black" points="43.2,-351.2 43.2,-382 307.62,-382 307.62,-351.2 43.2,-351.2"/>
<text text-anchor="start" x="50.2" y="-363.4" font-family="Arial" font-size="14.00">title_ja_jp </text>
<text text-anchor="start" x="113.24" y="-363.4" font-family="Arial" font-size="14.00" fill="#666666">[varchar(255)]</text>
<polygon fill="none" stroke="black" points="43.2,-320.4 43.2,-351.2 307.62,-351.2 307.62,-320.4 43.2,-320.4"/>
<text text-anchor="start" x="50.2" y="-332.6" font-family="Arial" font-size="14.00">title_en_us </text>
<text text-anchor="start" x="121.81" y="-332.6" font-family="Arial" font-size="14.00" fill="#666666">[varchar(255)]</text>
<polygon fill="none" stroke="black" points="43.2,-289.6 43.2,-320.4 307.62,-320.4 307.62,-289.6 43.2,-289.6"/>
<text text-anchor="start" x="50.2" y="-301.8" font-family="Arial" font-size="14.00">body_ja_jp </text>
<text text-anchor="start" x="121.81" y="-301.8" font-family="Arial" font-size="14.00" fill="#666666">[text]</text>
<polygon fill="none" stroke="black" points="43.2,-258.8 43.2,-289.6 307.62,-289.6 307.62,-258.8 43.2,-258.8"/>
<text text-anchor="start" x="50.2" y="-271" font-family="Arial" font-size="14.00">body_en_us </text>
<text text-anchor="start" x="130.38" y="-271" font-family="Arial" font-size="14.00" fill="#666666">[text]</text>
<polygon fill="none" stroke="black" points="43.2,-228 43.2,-258.8 307.62,-258.8 307.62,-228 43.2,-228"/>
<text text-anchor="start" x="50.2" y="-240.2" font-family="Arial" font-size="14.00">tags </text>
<text text-anchor="start" x="80.55" y="-240.2" font-family="Arial" font-size="14.00" fill="#666666">[varchar(255)]</text>
<polygon fill="none" stroke="black" points="43.2,-197.2 43.2,-228 307.62,-228 307.62,-197.2 43.2,-197.2"/>
<text text-anchor="start" x="50.2" y="-209.4" font-family="Arial" font-size="14.00">url </text>
<text text-anchor="start" x="69.65" y="-209.4" font-family="Arial" font-size="14.00" fill="#666666">[text]</text>
<polygon fill="none" stroke="black" points="43.2,-166.4 43.2,-197.2 307.62,-197.2 307.62,-166.4 43.2,-166.4"/>
<text text-anchor="start" x="50.2" y="-178.6" font-family="Arial" font-size="14.00">likes_count </text>
<text text-anchor="start" x="124.13" y="-178.6" font-family="Arial" font-size="14.00" fill="#666666">[int]</text>
<polygon fill="none" stroke="black" points="43.2,-135.6 43.2,-166.4 307.62,-166.4 307.62,-135.6 43.2,-135.6"/>
<text text-anchor="start" x="50.2" y="-147.8" font-family="Arial" font-size="14.00">stocks_count </text>
<text text-anchor="start" x="135.8" y="-147.8" font-family="Arial" font-size="14.00" fill="#666666">[int]</text>
<polygon fill="none" stroke="black" points="43.2,-104.8 43.2,-135.6 307.62,-135.6 307.62,-104.8 43.2,-104.8"/>
<text text-anchor="start" x="50.2" y="-117" font-family="Arial" font-size="14.00">comments_count </text>
<text text-anchor="start" x="160.7" y="-117" font-family="Arial" font-size="14.00" fill="#666666">[int]</text>
<polygon fill="none" stroke="black" points="43.2,-74 43.2,-104.8 307.62,-104.8 307.62,-74 43.2,-74"/>
<text text-anchor="start" x="50.2" y="-86.2" font-family="Arial" font-size="14.00">created_at </text>
<text text-anchor="start" x="120.25" y="-86.2" font-family="Arial" font-size="14.00" fill="#666666">[timestamp]</text>
<polygon fill="none" stroke="black" points="43.2,-43.2 43.2,-74 307.62,-74 307.62,-43.2 43.2,-43.2"/>
<text text-anchor="start" x="50.2" y="-55.4" font-family="Arial" font-size="14.00">updated_at </text>
<text text-anchor="start" x="124.16" y="-55.4" font-family="Arial" font-size="14.00" fill="#666666">[timestamp]</text>
</g>
<!-- articles_pickup -->
<g id="node2" class="node">
<title>articles_pickup</title>
<polygon fill="#efefef" stroke="none" points="412.18,-258.8 412.18,-294.4 660.63,-294.4 660.63,-258.8 412.18,-258.8"/>
<polygon fill="none" stroke="black" points="412.18,-258.8 412.18,-294.4 660.63,-294.4 660.63,-258.8 412.18,-258.8"/>
<text text-anchor="start" x="419.18" y="-272.2" font-family="Arial Bold" font-size="18.00">articles_pickup</text>
<text text-anchor="start" x="529.14" y="-272.2" font-family="Arial" font-size="14.00">    </text>
<text text-anchor="start" x="560.26" y="-272.2" font-family="Arial" font-size="14.00" fill="#666666">[BASE TABLE]</text>
<polygon fill="none" stroke="black" points="412.18,-228 412.18,-258.8 660.63,-258.8 660.63,-228 412.18,-228"/>
<text text-anchor="start" x="419.18" y="-240.2" font-family="Arial" font-size="14.00">id </text>
<text text-anchor="start" x="433.97" y="-240.2" font-family="Arial" font-size="14.00" fill="#666666">[char(20)]</text>
<polygon fill="none" stroke="black" points="412.18,-197.2 412.18,-228 660.63,-228 660.63,-197.2 412.18,-197.2"/>
<text text-anchor="start" x="419.18" y="-209.4" font-family="Arial" font-size="14.00">data </text>
<text text-anchor="start" x="450.32" y="-209.4" font-family="Arial" font-size="14.00" fill="#666666">[text]</text>
</g>
<!-- version -->
<g id="node3" class="node">
<title>version</title>
<polygon fill="#efefef" stroke="none" points="764.67,-243.4 764.67,-279 956.15,-279 956.15,-243.4 764.67,-243.4"/>
<polygon fill="none" stroke="black" points="764.67,-243.4 764.67,-279 956.15,-279 956.15,-243.4 764.67,-243.4"/>
<text text-anchor="start" x="771.67" y="-256.8" font-family="Arial Bold" font-size="18.00">version</text>
<text text-anchor="start" x="824.66" y="-256.8" font-family="Arial" font-size="14.00">    </text>
<text text-anchor="start" x="855.78" y="-256.8" font-family="Arial" font-size="14.00" fill="#666666">[BASE TABLE]</text>
<polygon fill="none" stroke="black" points="764.67,-212.6 764.67,-243.4 956.15,-243.4 956.15,-212.6 764.67,-212.6"/>
<text text-anchor="start" x="771.67" y="-224.8" font-family="Arial" font-size="14.00">last_update </text>
<text text-anchor="start" x="847.95" y="-224.8" font-family="Arial" font-size="14.00" fill="#666666">[varchar(20)]</text>
</g>
</g>
</svg>
