<?xml version="1.0" encoding="UTF-8" standalone="no"?>
<!DOCTYPE svg PUBLIC "-//W3C//DTD SVG 1.1//EN"
 "http://www.w3.org/Graphics/SVG/1.1/DTD/svg11.dtd">
<!-- Generated by graphviz version 12.1.2 (20240928.0832)
 -->
<!-- Title: sns Pages: 1 -->
<svg width="273pt" height="321pt"
 viewBox="0.00 0.00 273.15 320.80" xmlns="http://www.w3.org/2000/svg" xmlns:xlink="http://www.w3.org/1999/xlink">
<g id="graph0" class="graph" transform="scale(1 1) rotate(0) translate(4 316.8)">
<title>sns</title>
<polygon fill="white" stroke="none" points="-4,4 -4,-316.8 269.15,-316.8 269.15,4 -4,4"/>
<!-- sns -->
<g id="node1" class="node">
<title>sns</title>
<polygon fill="#efefef" stroke="none" points="46.2,-231 46.2,-266.6 218.95,-266.6 218.95,-231 46.2,-231"/>
<polygon fill="none" stroke="black" points="46.2,-231 46.2,-266.6 218.95,-266.6 218.95,-231 46.2,-231"/>
<text text-anchor="start" x="58.83" y="-244.4" font-family="Arial Bold" font-size="18.00">sns</text>
<text text-anchor="start" x="81.84" y="-244.4" font-family="Arial" font-size="14.00">    </text>
<text text-anchor="start" x="112.95" y="-244.4" font-family="Arial" font-size="14.00" fill="#666666">[BASE TABLE]</text>
<polygon fill="none" stroke="black" points="46.2,-200.2 46.2,-231 218.95,-231 218.95,-200.2 46.2,-200.2"/>
<text text-anchor="start" x="53.2" y="-212.4" font-family="Arial" font-size="14.00">id </text>
<text text-anchor="start" x="67.99" y="-212.4" font-family="Arial" font-size="14.00" fill="#666666">[int]</text>
<polygon fill="none" stroke="black" points="46.2,-169.4 46.2,-200.2 218.95,-200.2 218.95,-169.4 46.2,-169.4"/>
<text text-anchor="start" x="53.2" y="-181.6" font-family="Arial" font-size="14.00">title_ja_jp </text>
<text text-anchor="start" x="116.24" y="-181.6" font-family="Arial" font-size="14.00" fill="#666666">[varchar(255)]</text>
<polygon fill="none" stroke="black" points="46.2,-138.6 46.2,-169.4 218.95,-169.4 218.95,-138.6 46.2,-138.6"/>
<text text-anchor="start" x="53.2" y="-150.8" font-family="Arial" font-size="14.00">title_en_us </text>
<text text-anchor="start" x="124.81" y="-150.8" font-family="Arial" font-size="14.00" fill="#666666">[varchar(255)]</text>
<polygon fill="none" stroke="black" points="46.2,-107.8 46.2,-138.6 218.95,-138.6 218.95,-107.8 46.2,-107.8"/>
<text text-anchor="start" x="53.2" y="-120" font-family="Arial" font-size="14.00">favicon </text>
<text text-anchor="start" x="101.45" y="-120" font-family="Arial" font-size="14.00" fill="#666666">[text]</text>
<polygon fill="none" stroke="black" points="46.2,-77 46.2,-107.8 218.95,-107.8 218.95,-77 46.2,-77"/>
<text text-anchor="start" x="53.2" y="-89.2" font-family="Arial" font-size="14.00">url </text>
<text text-anchor="start" x="72.65" y="-89.2" font-family="Arial" font-size="14.00" fill="#666666">[text]</text>
<polygon fill="none" stroke="black" points="46.2,-46.2 46.2,-77 218.95,-77 218.95,-46.2 46.2,-46.2"/>
<text text-anchor="start" x="53.2" y="-58.4" font-family="Arial" font-size="14.00">visible </text>
<text text-anchor="start" x="95.99" y="-58.4" font-family="Arial" font-size="14.00" fill="#666666">[tinyint(1)]</text>
<polygon fill="none" stroke="black" stroke-width="3" points="44.7,-44.7 44.7,-268.1 220.45,-268.1 220.45,-44.7 44.7,-44.7"/>
</g>
</g>
</svg>
